<svg xmlns="http://www.w3.org/2000/svg" width="299.385" height="315.652" viewBox="0 0 299.385 315.652"><g fill-rule="evenodd" clip-rule="evenodd"><path fill="#000001" d="M198.277 160.708c.366 1.575 13.513 26.591 14.734 29.033.39.776 8.521 16.366 3.928 13.694-1.072-.624-8.08-7.993-11.655-10.778l-9.075-7.121c-1.75-1.306-8.627-6.519-10.002-6.636-.862-.074-1.009-.548-1.445 3.748-.236 2.337.844 12.721.826 15.696-.02 3.647-.005 7.299-.005 10.947.003 10.739-2.188 15.411-2.188 20.134h-.875c-.382-1.643-5.037-9.604-5.979-11.527-1.085-2.207-1.97-3.46-3.065-5.689l-9.197-17.063c-7.524-13.619-9.731-8.997-16.421 1.367l-13.398 21.619c-1.003 1.604-5.536 9.449-7.526 9.981l-.812-12.759c-.686-6.115 2.183-34.227-.939-38.89-2.045.546-13.002 10.615-15.628 12.822-.919.773-1.331 1.387-2.252 2.125-3.378 2.705-15.498 13.588-18.886 14.378 1.596-6.851 6.209-16.689 9.066-23.324 1.02-2.366 9.274-20.572 9.754-22.634 3.774 0 6.648 2.613 10.856 5.339 8.712 5.64 27.538 12.918 38.624 10.001 8.736-2.298 20.431-8.307 27.371-13.335 2.562-1.856 12.826-10.036 14.19-10.759l12.256 8.317c1.93 1.276 4.488 2.865 6.561 3.944l7.008 3.496c-3.109 0-4.783.215-7.025.055-3.132-.224-4.522-.416-7.177-1.173-5.551-1.58-8.809-4.352-11.624-5.008zm-124.307-.875c4.455 2.139 18.436-8.339 22.323-10.942-.423 5.079-9.156 20.907-12.878 26.953-3.256 5.288-2.034 3.09-4.63 8.501 1.523-.354 1.257-.328 2.309-1.193 3.616-2.979 23.824-22.916 25.267-25.068-3.666-2.454-8.854-9.688-11.381-11.38-1.658 1.11-3.656 2.137-5.555 3.198l-10.723 6.348c-1.604.956-3.784 2.168-4.732 3.583zm27.575-111.174c0-3.619.563-6.426 1.572-9.37 3.573-10.417 16.417-18.02 27.903-10.914 11.295 6.987 3.201 14.927-3.751 20.621-3.65 2.99-15.679 10.954-19.447 10.433-4.258-.588-6.277-5.899-6.277-10.77zm58.653-13.131c0-5.802 10.006-10.067 15.318-10.067 4.216 0 9.83 2.349 12.87 5.078 2.4 2.157 4.177 4.625 5.517 7.612 2.247 5.003 2.101 14.751-1.035 18.667-.821 1.026-3.559 2.783-5.096 2.783-3.449 0-13.735-7.556-16.255-9.568-3.399-2.716-11.319-9.064-11.319-14.505zm-19.26-1.751c0 2.186.617.583.039 3.073-2.217 9.543-20.945 24.939-31.115 24.939-9.147 0-7.925-3.501-10.505-3.501-6.114 0-11.018 10.785-13.075 15.813-7.731 18.898-7.251 37.056 2.127 55.1 2.751 5.293 10.048 14.598 14.55 19.152 20.646 20.882 45.303 30.956 72.81 14.798 6.01-3.53 14.016-9.929 19.121-15.019 2.634-2.625 7.477-8.666 9.701-11.748 17.073-23.664 16.708-46.46 1.755-71.283-10.313-17.123-6.89-3.311-18.574-3.311-7.217 0-27.816-13.069-30.02-22.504-.799-3.424-.089-6.124-2.244-8.261-1.79-1.773-5.298-2.386-7.694-2.196-6.742.535-6.876 1.594-6.876 4.948zM0 65.729c0 5.896 2.85 13.993 4.289 19.785 8.888 35.791 23.191 84.767 41.371 117.512 1.505 2.711 2.706 5.53 5.113 7.143 3.267-2.188 7.476-9.145 9.808-12.515.926-1.338 9.013-13.113 9.013-13.31 0-1.666-3.541-7.954-4.374-9.632-1.436-2.896-3.08-6.215-5.87-8.138-4.84-3.337-18.808-2.781-21.708-6.742 1.739-2.373 9.213-2.935 13.068-3.564 3.515-.573 5.21.506 3.879-3.264-.839-2.378-1.557-4.151-2.343-6.462-5.849-17.181-11.187-33.566-16.169-51.235-1.296-4.595-2.155-8.626-3.338-13.295-4.978-19.642-3.994-14.957 11.907-25.475 4.92-3.254 10.622-6.254 15.737-9.211l16.029-8.918c2.754-1.645 5.41-2.681 8.044-4.212 8.041-4.672 17.146-8.212 25.72-11.921 12.977-5.613 26.928-9.232 41.521-7.136 5.494.789 15.146 1.711 18.566 6.821-3.999 5.458-28.671 3.889-35.587 2.759-9.71-1.586-13.794-5.835-23.153-.221-8.778 5.266-11.843 10.29-13.107 20.595-.717 5.84-4.622 10.699-7.626 14.696-6.854 9.118-11.521 19.884-12.846 31.799-1.796 16.155-.845 22.855 6.093 36.732 2.54 5.079 5.122 9.998 6.566 16.195-3.299 4.926-17.044 9.87-23.795 12.096-3.053 1.007-6.818 1.616-10.345 1.91.23 2.771 2.233 3.358 4.976 3.778 3.507.537 13.657.44 16.724-.023 2.743-.416 5.976-.254 8.938-.254-1.067 4.582-20.36 33.247-24.052 39.415-1.131 1.888-2.321 3.874-3.522 5.668 2.159-.576 17.138-14.912 19.762-17.005l4.126-3.752c4.191-3.256 7.127-6.426 12.003-9.007 0 2.438-.987 4.028-1.684 5.758-.698 1.732-1.478 3.626-2.25 5.191-2.219 4.505-14.382 28.019-14.45 31.069l8.312-6.131c11.045-8.441 21.778-17.319 32.641-26.011 4.248-3.398 5.026-2.169 5 3.695-.012 2.818.465 3.926.448 6.994l-.005 45.964c2.311-2.659 6.121-9.88 7.879-13.131 4.301-7.955 9.072-15.701 13.759-23.444 1.499-2.475 8.482-15.159 11.188-15.51 2.92-.379 8.863 12.23 10.211 14.737.736 1.368 1.175 1.879 1.903 3.35l13.852 26.416c.729 1.461 1.177 1.987 1.903 3.35.567 1.062 1.157 2.508 1.896 3.356.79-3.387 1.583-10.02 1.748-13.571.456-9.848 1.328-19.561 1.316-29.323-.008-6.253 1.25-11.241 1.313-14.005 1.832.04 2.115.517 3.085 1.291 4.157 3.322 8.4 6.87 12.126 10.635 4.477 4.525 9.502 8.586 14.005 13.131 1.501 1.513 2.998 3.223 4.669 4.521 1.792 1.391 3.222 3.496 5.508 3.686-.107-4.793-14.275-32.489-16.78-37.495l-4.528-9.04c-.639-1.279-.909-2.227-1.452-3.361 5.154.429 10.449 2.778 15.939 1.937 4.109-.63 12.178.076 14.7-3.688-.953-1.421-2.788-1.979-4.436-2.569-5.42-1.938-9.643-1.95-15.516-5.493l-12.97-8.04c-1.421-.952-2.646-2.281-4.284-2.719.378-1.42 2.405-3.644 3.378-4.938 9.694-12.915 16.756-25.602 16.756-43.645 0-31.222-20.582-39.915-22.761-66.092 5.656 3.787 12.121 6.748 17.637 10.814 2.888 2.129 5.648 3.797 8.502 5.941 1.467 1.102 2.702 1.815 4.131 2.874l21.004 15.323c5.541 4.158 10.827 8.473 16.57 12.319-1.508 3.143-2.397 6.512-3.689 9.88-3.884 10.138-7.615 20.205-11.816 30.203-4.025 9.586-11.3 25.077-14.646 34.375-2.759 7.664-2.133 6.092 8.59 7.506 1.061.14 3.756.652 5.094 1.033 1.813.517 3.346 1.06 4.213 2.354-1.23 1.678-6.087 2.716-8.371 3.446-6.08 1.944-12.635 3.539-18.389 6.123-10.93 4.908-1.662 21.002 1.494 28.389 1.379 3.229 2.727 5.827 4.069 9.06 1.277 3.07 3.388 6.272 4.126 9.445 1.703-1.249 3.572-5.595 4.679-7.576 4.525-8.098 9.238-15.881 13.413-24.23 2.715-5.43 5.997-11.2 8.229-16.717 2.188-5.401 9.014-19.802 11.751-25.893 3.602-8.02 23.08-54.976 24.956-63.021-1.44-2.15-5.396-4.95-7.69-6.755-9.697-7.621-19.41-15.109-29.602-22.047a142.42 142.42 0 0 1-4.357-3.082c-19.552-14.363-30.221-21.016-51.561-33.353-.919-.53-1.315-.847-2.493-1.445-3.514-1.783-6.387-3.402-9.781-5.101-35.6-17.803-53.621-18.092-91.531-4.428-9.354 3.371-18.466 7.778-27.232 12.161l-17.509 9.19c-1.68.852-2.609 1.538-4.229 2.335-1.54.757-2.62 1.461-4.227 2.338l-16.535 9.728c-5.653 3.399-10.781 6.542-16.36 9.901-1.48.891-2.697 1.713-4.042 2.524C10.383 58.947 0 64.771 0 65.729z"/><path fill="#000001" d="M54.712 216.733c0 4.414 9.711 18.893 12.514 22.939l5.624 7.508c2.979 3.964 2.383 2.753 5.128 5.814 2.58 2.878 3.391 2.74 7.406 3.535 9.832 1.949 20.158 3.375 30.3 4.718 5.147.68 11.011 1.001 16.086 1.421 2.985.247 5.812-.015 8.412.341 6.02.825 39.82-.333 44.457-.822 7.292-.771 15.646-1.426 22.309-3.08 7.084-1.761 6.02-1.984 10.913-7.471 1.783-2.001 3.984-5.026 5.456-7.236.989-1.486 1.723-2.385 2.72-3.847.894-1.317 1.527-2.46 2.366-3.763 3.404-5.287 1.715-8.98-2.226-13.379-1.064-1.189-1.7-2.171-2.836-3.292l-8.764-9.621c-.867-.984-5.066-5.707-6.233-6.021l-6.436 6.694c-3.948 4.722-6.741 7.236-8.837 13.487-2.068 6.183-2.878 15.596-4.24 22.458-.609 3.071-1.345 4.724-1.936 7.258-1.778-1.304-5.197-8.498-6.312-11.195l-3.694-8.125c-1.301-3.173-4.837-10.583-5.313-12.633h-31.954c-1.356 2.566-2.642 5.274-3.938 7.88l-10.498 20.141c-.76 1.438-1.321 2.59-3.071 3.057-.884-1.844-1.398-4.767-1.676-7.078-.324-2.725-.283-5.736-.697-8.493-.428-2.841-.15-5.539-.239-8.517-.095-3.161-.452-3.108-.452-8.739-2.305 0-5.234-.729-7.628-1.126l-14.878-2.629c-10.417-1.887-5.816-2.234-18.818 7.513-2.061 1.545-3.893 2.672-5.883 4.182-2.187 1.66-3.727 2.575-6.19 3.879.118-5.311 14.006-25.89 14.006-32.391.001-5.537-24.948 14.422-24.948 16.633z"/><path fill="#000001" d="M149.254 138.824c-12.581 0-24.948-14.596-24.948-21.009 6.146 0 7.017.305 12.876 1.128l10.799 1.055 10.944-.829c10.993-1.066 17.414-4.036 11.427 4.863-3.122 4.641-6.831 8.99-11.707 11.929-2.108 1.269-6.283 2.863-9.391 2.863zm2.188-22.761c-21.465 0-31.91-5.014-48.399-15.066-4.065-2.479-7.347-5.632-12.44-6.818.383 4.601 7.171 5.239 9.572 11 1.009 2.425.788 5.745 1.475 8.592.629 2.606 1.562 5.435 2.578 7.927 5.509 13.51 15.614 26.173 27.017 35.136 3.753 2.95 8.892 5.321 14.346 6.662 10.403 2.559 21.06-5.938 27.628-12.526 8.231-8.257 17.419-19.252 20.843-30.807 2.849-9.617 2.14-12.221 9.722-21.792 7.822-9.874-8.48 2.044-12.948 4.999-10.793 7.138-26.25 12.693-39.394 12.693z"/><path fill="#000001" d="M238.981 308.211h-22.322c0-20.825-3.29-17.508 29.326-17.508 0 11.27 1.884 17.508-7.004 17.508zm-32.825-17.945v25.386h41.143c3.385 0 8.754-4.019 8.754-7.003v-25.387h-40.704c-3.317 0-9.193 3.695-9.193 7.004z"/><path fill="#000001" d="M112.925 290.704h22.761v5.69H106.36c.046-2.094.549-3.323 1.85-4.278.997-.731 3.098-1.412 4.715-1.412zm-16.632 0v24.948h10.067v-13.13h29.326v13.13h10.503v-32.39h-40.705c-3.611 0-9.191 4.032-9.191 7.442z"/><path fill="#000001" d="M41.581 290.266v25.386h49.897v-7.44H52.085c0-7.109-1.761-17.508 5.252-17.508h34.141v-7.441H50.772c-3.491-.001-9.191 3.794-9.191 7.003z"/><path fill="#000001" d="M151.442 290.266v25.386h49.898v-7.44h-39.394c0-7.109-1.762-17.508 5.252-17.508h34.142v-7.441h-40.707c-3.491-.001-9.191 3.794-9.191 7.003z"/><path fill="#000001" d="M170.701 33.777c.355 4.252 2.347 1.992 3.802 4.079 1.12 1.61.229 3.729 2.197 5.68 1.416 1.406 3.347 1.699 5.255 2.625 3.906 1.895 1.223 4.249 4.503 4.249 3.264 0 4.056-11.304-1.206-14.549-3.002-1.853-10.674-4.407-14.551-2.084z"/><path fill="#000001" d="M108.11 48.221c0 .741.583 1.636.876 2.189 4.663-.388 16.268-12.245 16.633-16.633-3.015-1.594-4.328-.794-8.416.339-2.501.693-3.651.952-5.289 2.589-2.011 2.012-3.804 7.644-3.804 11.516z"/><path fill="#AEACAD" d="M198.277 160.708v-.437l-.512.364z"/></g></svg>