<svg xmlns="http://www.w3.org/2000/svg" width="272.875" height="279.81"><g style="line-height:125%;-inkscape-font-specification:'URW Gothic L Book';text-align:center" font-size="29.136" font-family="URW Gothic L" letter-spacing="0" word-spacing="0" text-anchor="middle"><path style="line-height:125%;-inkscape-font-specification:'URW Gothic L Book';text-align:center" d="M47.402 260.438h-2.389c-2.272 2.855-4.341 4.05-7.488 4.05-4.982 0-9.09-4.138-9.09-9.178 0-5.187 3.933-9.15 9.061-9.15 3.03 0 5.565 1.108 7.4 3.993h2.42c-1.662-3.7-5.45-5.973-9.907-5.973-6.41 0-11.16 4.778-11.16 11.217 0 6.294 4.866 11.072 11.305 11.072 4.37 0 7.692-2.04 9.848-6.031z"/><path style="line-height:125%;-inkscape-font-specification:'URW Gothic L Book';text-align:center" d="M66.501 258.165c0-4.866-3.496-8.391-8.274-8.391-4.72 0-8.363 3.584-8.363 8.245 0 4.895 3.584 8.45 8.537 8.45 4.662 0 8.1-3.526 8.1-8.304zm-2.185.03c0 3.641-2.506 6.293-5.973 6.293-3.671 0-6.293-2.68-6.293-6.41 0-3.613 2.651-6.323 6.177-6.323 3.496 0 6.09 2.739 6.09 6.44z"/><path style="line-height:125%;-inkscape-font-specification:'URW Gothic L Book';text-align:center" d="M93.199 266.09v-9.47c0-4.632-2.622-6.875-6.264-6.875-2.477 0-4.196.961-5.536 3.088-1.253-2.127-2.827-3.06-5.216-3.06-2.01 0-3.263.613-4.487 2.215v-1.835H69.54v15.937h2.156v-9.294c0-3.176 1.603-5.04 4.283-5.04 2.448 0 4.313 1.485 4.313 5.04v9.294h2.156v-9.236c0-3.613 1.835-5.128 4.37-5.128 2.622 0 4.225 1.544 4.225 5.128v9.236h2.156z"/><path style="line-height:125%;-inkscape-font-specification:'URW Gothic L Book';text-align:center" d="M114.122 258.165c0-4.75-3.642-8.391-8.39-8.391-2.71 0-4.925 1.107-6.265 3.117v-2.738H97.31v21.531h2.156v-8.333c1.398 2.04 3.555 3.118 6.206 3.118 4.75 0 8.45-3.642 8.45-8.304zm-2.185 0c0 3.584-2.71 6.323-6.264 6.323-3.642 0-6.352-2.768-6.352-6.44 0-3.525 2.797-6.293 6.323-6.293 3.584 0 6.293 2.739 6.293 6.41z"/><path style="line-height:125%;-inkscape-font-specification:'URW Gothic L Book';text-align:center" d="M131.215 266.09v-15.937h-2.156v8.187c0 4.341-2.04 6.148-4.953 6.148-3.089 0-4.779-1.69-4.779-5.74v-8.595h-2.156v8.595c0 5.565 2.71 7.721 6.76 7.721 2.477 0 4.05-.874 5.128-2.855v2.476h2.156z"/><path style="line-height:125%;-inkscape-font-specification:'URW Gothic L Book';text-align:center" d="M142.561 252.105v-1.952h-3.583v-5.595h-2.156v5.595h-3.439v1.952h3.439v13.985h2.156v-13.985h3.583z"/><path style="line-height:125%;-inkscape-font-specification:'URW Gothic L Book';text-align:center" d="M146.927 266.09v-15.937h-2.156v15.937h2.156zm0-17.686v-3.67h-2.156v3.67h2.156z"/><path style="line-height:125%;-inkscape-font-specification:'URW Gothic L Book';text-align:center" d="M164.678 266.09v-8.362c0-5.594-2.826-7.954-6.818-7.954-2.098 0-3.788.816-5.128 2.447v-2.068h-2.156v15.937h2.156v-8.77c0-3.904 1.981-5.565 4.866-5.565 2.942 0 4.924 1.632 4.924 5.973v8.362h2.156z"/><path style="line-height:125%;-inkscape-font-specification:'URW Gothic L Book';text-align:center" d="M184.268 263.235v-13.082h-2.156v2.826c-1.602-2.185-3.554-3.205-6.235-3.205-4.662 0-8.158 3.613-8.158 8.42 0 4.662 3.642 8.275 8.304 8.275 2.855 0 4.836-1.165 6.09-3.613v1.078c0 4.196-2.011 6.44-5.857 6.44-2.68 0-4.225-.904-5.857-3.788h-2.097c1.165 3.729 3.991 5.769 8.012 5.769 2.768 0 5.099-1.05 6.468-2.856 1.078-1.457 1.486-3.147 1.486-6.264zm-2.156-5.303c0 3.73-2.622 6.556-6.09 6.556-3.496 0-6.118-2.768-6.118-6.469 0-3.642 2.564-6.264 6.09-6.264 3.438 0 6.118 2.71 6.118 6.177z"/><path style="line-height:125%;-inkscape-font-specification:'URW Gothic L Book';text-align:center" d="M209.564 262.157v-1.952h-1.982v-15.647h-2.534l-10.49 15.647v1.952h10.897v3.933h2.127v-3.933h1.982zm-4.109-1.952h-8.42l8.42-12.675v12.675z"/><path style="line-height:125%;-inkscape-font-specification:'URW Gothic L Book';text-align:center" d="M239.692 266.09l-9.266-21.532h-2.418l-9.236 21.532h2.272l3.147-7.255h10.023l3.118 7.255h2.36zm-6.323-9.207h-8.362l4.225-9.877 4.137 9.877z"/><path style="line-height:125%;-inkscape-font-specification:'URW Gothic L Book';text-align:center" d="M244.01 266.09v-21.532h-2.155v21.532h2.156z"/><path style="line-height:125%;-inkscape-font-specification:'URW Gothic L Book';text-align:center" d="M249.815 266.09v-21.532h-2.156v21.532h2.156z"/></g><path d="M100.657 126.84a35.892 35.892 0 0 1 35.891 35.892 35.892 35.892 0 0 1 35.892-35.891 35.892 35.892 0 0 1-35.892-35.892 35.892 35.892 0 0 1-35.891 35.892z" fill="#7d729b"/><rect width="82.475" height="82.475" x="140.284" y="135.824" ry="24.717" transform="matrix(0 1 1 0 -41.175 -55.465)"/><path d="M40.412 61.018a15.273 15.273 0 0 1 21.271-3.75 15.273 15.273 0 0 1 3.751 21.27 15.273 15.273 0 0 1-21.271 3.751 15.273 15.273 0 0 1-3.75-21.27z" fill="#ff9800"/><rect transform="rotate(-145 -29.331 -21.242)" ry="3.433" y="-87.531" x="-189.873" height="77.819" width="11.972" fill="#ff9800"/><path d="M65.434 175.494a15.273 15.273 0 0 1-21.271-3.751 15.273 15.273 0 0 1-3.75 21.27 15.273 15.273 0 0 1 21.27 3.752 15.273 15.273 0 0 1 3.751-21.271z" fill="#ee0529"/><rect transform="scale(1 -1) rotate(35 -108.544 -37.562)" width="11.972" height="77.819" x="-31.43" y="-289.251" ry="3.433" fill="#ee0529"/><path d="M171.739 235.865a15.273 15.273 0 0 1-19.33-9.637 15.273 15.273 0 0 1 9.637-19.33 15.273 15.273 0 0 1 19.33 9.638 15.273 15.273 0 0 1-9.637 19.33z" fill="#4cd610"/><rect transform="rotate(71.5 17.936 -56.33)" ry="3.433" y="-148.377" x="287.604" height="77.819" width="11.972" fill="#4cd610"/><path d="M162.046 47.833a15.273 15.273 0 0 1 19.33-9.637 15.273 15.273 0 0 1-9.637-19.33 15.273 15.273 0 0 1-19.33 9.637 15.273 15.273 0 0 1 9.637 19.33z" fill="#00b8fb"/><rect transform="scale(-1 1) rotate(71.5 59.11 .865)" width="11.972" height="77.819" x="47.192" y="186.584" ry="3.433" fill="#00b8fb"/><path d="M253.388 126.103a15.273 15.273 0 0 1-15.273 15.273 15.273 15.273 0 0 1-15.273-15.273 15.273 15.273 0 0 1 15.273-15.272 15.273 15.273 0 0 1 15.273 15.272z" fill="#7d729b"/><rect width="11.972" height="77.819" x="238.33" y="142.659" ry="3.433" transform="translate(-41.175 -55.465)" fill="#7d729b"/><g fill="none" stroke="#fff" stroke-width="25.149" stroke-linecap="round"><path d="M-649.43 570.895l-89.723 76.854" transform="matrix(.17776 0 0 .14231 237.81 32.253)"/><path d="M-649.43 725.75l-89.723-76.855" transform="matrix(.17776 0 0 .14231 237.81 32.253)"/></g><g fill="none" stroke="#fff" stroke-width="25.149" stroke-linecap="round"><path d="M-649.43 570.895l-89.723 76.854" transform="matrix(-.17776 0 0 .14231 32.214 32.253)"/><path d="M-649.43 725.75l-89.723-76.855" transform="matrix(-.17776 0 0 .14231 32.214 32.253)"/></g><path d="M141.605 113.5l-12.292 22.197" fill="none" stroke="#fff" stroke-width="4" stroke-linecap="round"/></svg>