<svg xmlns="http://www.w3.org/2000/svg" width="299.799" height="70.285" viewBox="0 0 299.799 70.285"><g fill-rule="evenodd" clip-rule="evenodd"><path fill="#231F20" d="M80.223 26.777h4.01c-1.033 3.024-2.436 5.227-4.207 6.605-1.297 1.02-2.821 1.718-4.578 2.112-1.765.394-4.255.591-7.468.591-4.305 0-7.431-.161-9.396-.476-1.957-.313-3.359-.877-4.193-1.7-1.831-1.835-1.912-5.344-.237-10.516 1.183-3.652 2.598-6.391 4.24-8.226 1.608-1.79 3.486-2.999 5.633-3.633 2.148-.637 5.43-.959 9.852-.959 3.983 0 6.879.207 8.688.619 1.81.411 3.054 1.127 3.732 2.157.478.733.719 1.593.737 2.559.01.967-.21 2.255-.67 3.867h-4.108c.702-2.336.435-3.885-.802-4.627-1.236-.744-4.134-1.11-8.698-1.11-4.476 0-7.55.457-9.221 1.361-1.108.599-2.071 1.557-2.909 2.873-.839 1.315-1.629 3.125-2.372 5.415-.702 2.167-1.002 3.867-.915 5.119.095 1.254.593 2.148 1.485 2.687 1.224.751 4.395 1.126 9.515 1.126 4.037 0 6.805-.366 8.316-1.109 1.503-.743 2.697-2.328 3.566-4.735zm34.705-16.201c3.912 0 6.765.116 8.548.359 1.786.233 3.105.662 3.947 1.297 1.271.94 1.972 2.282 2.107 4.019.137 1.736-.282 4.107-1.248 7.088-1.075 3.321-2.316 5.854-3.717 7.582-1.032 1.307-2.18 2.335-3.447 3.07-1.258.733-2.772 1.262-4.535 1.593-1.718.331-4.45.501-8.191.501-3.526 0-6.156-.117-7.877-.358-1.723-.233-3.046-.655-3.965-1.271-1.378-.886-2.143-2.201-2.296-3.938-.151-1.745.28-4.181 1.291-7.303 1.134-3.5 2.511-6.149 4.123-7.948 1.647-1.853 3.497-3.088 5.556-3.724 2.057-.626 5.294-.948 9.704-.967zm-.496 3.464c-2.604 0-4.596.098-5.99.287-1.389.197-2.558.546-3.508 1.047-1.125.6-2.101 1.54-2.936 2.819-.838 1.29-1.609 3.035-2.328 5.254-.815 2.516-1.149 4.404-.988 5.647.149 1.253.83 2.14 2.022 2.66 1.315.581 4.148.867 8.499.867 2.828 0 4.948-.107 6.358-.313 1.403-.215 2.593-.599 3.568-1.18 1.065-.609 1.991-1.532 2.76-2.749.773-1.226 1.518-2.945 2.237-5.164.85-2.623 1.177-4.547.972-5.764-.219-1.369-1.027-2.273-2.427-2.731-1.401-.456-4.149-.68-8.239-.68zm28.867-3.15h3.93l-1.214 3.75h.287c1.357-1.592 2.984-2.666 4.892-3.221 1.901-.563 4.899-.842 8.99-.842 3.571 0 6.146.197 7.746.592 1.591.394 2.714 1.101 3.354 2.138.506.814.718 1.844.622 3.08-.091 1.226-.518 3.006-1.271 5.333l-4.551 14.053h-3.931l4.01-12.379c.72-2.22 1.146-3.813 1.27-4.78.135-.967.024-1.79-.313-2.452-.423-.77-1.257-1.316-2.531-1.638-1.265-.323-3.262-.484-5.994-.484-3.041 0-5.485.224-7.331.671-1.833.439-3.351 1.172-4.538 2.184-.829.734-1.489 1.558-1.966 2.479-.484.913-1.1 2.543-1.861 4.887l-3.728 11.511h-3.929l8.057-24.882zm31.769 33.822l10.953-33.823h3.932l-1.035 3.195h.233c1.316-1.414 2.828-2.354 4.533-2.81 1.708-.465 4.513-.699 8.435-.699 3.373 0 5.865.125 7.496.368 1.623.241 2.884.689 3.776 1.333 1.384 1.002 2.115 2.362 2.192 4.091.08 1.683-.355 4-1.319 6.972-1.215 3.76-2.689 6.534-4.419 8.315-1.736 1.798-3.69 2.989-5.836 3.562-2.157.583-5.677.869-10.574.869-3.589 0-6.085-.225-7.497-.672-1.406-.438-2.357-1.315-2.852-2.604h-.232L179 44.712h-3.932zm26.841-30.672c-3.167 0-5.545.098-7.152.305-1.602.196-2.864.554-3.779 1.056-1.136.635-2.094 1.548-2.89 2.738-.801 1.199-1.539 2.847-2.219 4.941-.798 2.46-1.177 4.322-1.136 5.584.04 1.253.499 2.184 1.391 2.775 1.179.788 3.95 1.18 8.326 1.18 2.919 0 5.153-.098 6.695-.303 1.541-.198 2.775-.556 3.709-1.057 1.152-.636 2.125-1.558 2.926-2.767.805-1.216 1.557-2.898 2.254-5.047.786-2.426 1.165-4.26 1.123-5.486-.038-1.234-.506-2.149-1.396-2.739-1.141-.786-3.762-1.18-7.852-1.18zm49.03 14.052h4.115c-1.033 2.972-2.754 5.047-5.153 6.22-2.416 1.182-6.133 1.773-11.173 1.773-4.161 0-7.27-.161-9.322-.484-2.052-.323-3.505-.869-4.356-1.637-1.938-1.782-2.059-5.309-.354-10.571 1.195-3.688 2.628-6.453 4.293-8.307 1.582-1.762 3.438-2.962 5.546-3.579 2.116-.619 5.411-.932 9.887-.932 4.286 0 7.304.225 9.061.68 1.761.457 2.996 1.334 3.717 2.623.589 1.083.832 2.346.718 3.777-.114 1.432-.635 3.616-1.549 6.551H228.65c-.898 3.097-.977 5.218-.232 6.374.501.778 1.536 1.315 3.087 1.611 1.562.287 4.201.429 7.924.429 2.819 0 4.922-.134 6.321-.393 1.392-.26 2.523-.743 3.402-1.441.658-.536 1.265-1.44 1.787-2.694zm2.166-7.24c.766-2.426.673-4.125-.295-5.084-.635-.644-1.662-1.091-3.09-1.351-1.431-.251-3.612-.376-6.529-.376-2.551 0-4.531.117-5.952.358-1.406.233-2.589.645-3.535 1.245-1.543.958-2.822 2.694-3.834 5.209h23.235zm39.881 5.925h4.011c-1.033 3.024-2.437 5.227-4.208 6.605-1.297 1.02-2.819 1.718-4.576 2.112-1.766.394-4.257.591-7.468.591-4.306 0-7.433-.161-9.397-.476-1.956-.313-3.358-.877-4.193-1.7-1.83-1.835-1.911-5.344-.235-10.516 1.182-3.652 2.597-6.391 4.238-8.226 1.61-1.79 3.485-2.999 5.634-3.633 2.149-.637 5.43-.959 9.854-.959 3.98 0 6.875.207 8.685.619 1.811.411 3.055 1.127 3.732 2.157.478.733.72 1.593.737 2.559.011.967-.211 2.255-.671 3.867h-4.107c.702-2.336.434-3.885-.802-4.627-1.236-.744-4.132-1.11-8.698-1.11-4.477 0-7.55.457-9.22 1.361-1.109.599-2.07 1.557-2.909 2.873s-1.629 3.125-2.372 5.415c-.701 2.167-1.001 3.867-.915 5.119.095 1.254.594 2.148 1.487 2.687 1.222.751 4.393 1.126 9.513 1.126 4.036 0 6.806-.366 8.315-1.109 1.503-.743 2.695-2.328 3.565-4.735z"/><g fill="#F48120"><circle cx="89.906" cy="23.813" r="2.132"/><circle cx="132.991" cy="23.813" r="2.132"/><circle cx="175.644" cy="23.813" r="2.132"/><circle cx="220.034" cy="23.813" r="2.132"/><circle cx="261.335" cy="23.813" r="2.132"/></g><path fill="#231F20" d="M14.488 56.639h.979c-.017.707-.266 1.201-.748 1.479-.482.283-1.322.422-2.522.422-.99 0-1.742-.038-2.256-.114-.513-.078-.9-.207-1.163-.391-.598-.424-.898-1.263-.898-2.515 0-.877.128-1.537.381-1.978a1.819 1.819 0 0 1 1.043-.852c.456-.146 1.216-.221 2.281-.221 1.021 0 1.755.053 2.209.162.455.109.817.317 1.087.624.223.258.378.558.462.899.083.34.128.861.136 1.56H8.883c.025.736.17 1.241.437 1.517.179.185.466.313.859.383.394.069 1.033.103 1.919.103.671 0 1.161-.033 1.473-.094.312-.062.543-.177.699-.343.116-.129.19-.344.218-.641zm-.043-1.724c-.004-.578-.158-.982-.462-1.211-.2-.153-.479-.26-.839-.321-.36-.059-.888-.089-1.583-.089-.607 0-1.069.027-1.388.085-.318.055-.566.153-.746.296-.293.229-.464.641-.511 1.24h5.529zm16.775-2.371h.942v.78c.295-.359.592-.59.892-.694.301-.107.812-.16 1.536-.16.969 0 1.664.07 2.088.212.422.141.75.413.982.816.191-.386.488-.655.887-.806.4-.149 1.024-.223 1.872-.223.808 0 1.413.051 1.815.155.4.104.727.291.976.562.191.216.317.459.374.728.058.268.087.748.087 1.437v3.114h-.935v-3.331c0-.729-.109-1.198-.324-1.41-.292-.289-.958-.431-1.998-.431-.597 0-1.05.041-1.362.118-.313.08-.549.211-.713.4-.162.191-.273.445-.33.764-.058.317-.088.837-.088 1.555v2.334h-.935v-3.331c0-.42-.023-.731-.068-.931a.938.938 0 0 0-.257-.474c-.304-.291-.972-.436-2.01-.436-.599 0-1.061.041-1.382.121-.322.081-.571.219-.746.416-.149.17-.249.403-.296.699-.049.293-.073.828-.073 1.601v2.334h-.934v-5.919zm28.428 8.05v-8.05h.935v.761h.056c.204-.337.492-.561.862-.67.37-.11 1.021-.166 1.954-.166.803 0 1.406.03 1.813.086.405.058.74.166 1.001.318.407.238.687.562.837.974.149.399.224.952.224 1.659 0 .894-.136 1.554-.412 1.979a1.941 1.941 0 0 1-1.113.848c-.469.139-1.285.206-2.45.206-.854 0-1.465-.053-1.836-.16a1.566 1.566 0 0 1-.879-.62h-.056v2.833h-.936zm4.025-7.3c-.754 0-1.313.023-1.679.072-.366.046-.639.133-.818.252-.222.15-.379.368-.477.651-.098.286-.147.678-.147 1.176 0 .585.053 1.028.16 1.328.106.299.288.521.545.662.341.187 1.031.281 2.073.281.694 0 1.218-.024 1.57-.073.351-.047.618-.131.8-.251a1.24 1.24 0 0 0 .484-.658c.097-.29.146-.69.146-1.201 0-.578-.051-1.015-.156-1.306a1.15 1.15 0 0 0-.543-.652c-.331-.188-.985-.281-1.958-.281zm19.435-.75h.935v.799h.062a1.54 1.54 0 0 1 .669-.631c.18-.091.416-.156.707-.189.295-.037.733-.053 1.315-.053.584 0 1.018.031 1.302.096.285.066.53.183.734.353.399.346.599.907.599 1.679v.611h-.961v-.423c0-.328-.021-.578-.066-.747a.862.862 0 0 0-.234-.415c-.236-.219-.731-.33-1.479-.33-1.129 0-1.852.146-2.17.439-.318.294-.478.96-.478 2v2.732h-.935v-5.921zm28.384 4.095h.98c-.017.707-.266 1.201-.748 1.479-.483.283-1.323.422-2.522.422-.99 0-1.742-.038-2.256-.114-.513-.078-.901-.207-1.163-.391-.599-.424-.898-1.262-.898-2.515 0-.877.127-1.537.382-1.978.24-.419.589-.704 1.043-.852.456-.146 1.216-.221 2.281-.221 1.021 0 1.755.053 2.209.162.454.109.816.317 1.087.624.223.258.379.558.462.899.083.34.127.861.137 1.56h-6.598c.025.736.171 1.241.437 1.517.179.185.466.313.859.383.394.069 1.033.103 1.919.103.671 0 1.161-.033 1.474-.094.311-.062.543-.177.699-.343.114-.129.188-.344.216-.641zm-.042-1.724c-.004-.578-.158-.982-.463-1.211-.2-.153-.479-.26-.839-.321-.36-.059-.888-.089-1.583-.089-.607 0-1.069.027-1.389.085-.318.055-.566.153-.746.296-.294.229-.464.641-.511 1.24h5.531zm16.612 1.485h1v.168c0 .32.034.55.102.686.068.139.205.243.409.32.271.096 1.048.143 2.335.143.803 0 1.361-.018 1.674-.054.315-.037.541-.104.678-.208.188-.141.281-.36.281-.656 0-.358-.112-.601-.336-.732-.226-.131-.635-.194-1.23-.19-.187.004-1.088-.007-2.702-.032a5.01 5.01 0 0 1-1.008-.1 1.573 1.573 0 0 1-.625-.282c-.318-.246-.476-.658-.476-1.241 0-.616.198-1.064.592-1.342.208-.145.55-.249 1.025-.315.473-.064 1.157-.097 2.047-.097.992 0 1.727.054 2.199.163.473.108.82.3 1.04.575a.963.963 0 0 1 .208.421c.033.147.047.396.047.746h-.986c-.005-.362-.063-.599-.182-.711-.127-.129-.376-.224-.748-.281-.37-.058-.907-.087-1.61-.087-1.28 0-2.059.09-2.333.269-.2.132-.3.358-.3.673 0 .326.117.539.35.643.232.104.704.149 1.41.139.699-.013 1.604.004 2.714.049.675.025 1.161.171 1.459.443.297.27.445.698.445 1.286 0 .354-.051.639-.156.861a1.27 1.27 0 0 1-.506.543c-.202.125-.537.213-.997.264-.463.054-1.132.079-2.004.079-.979 0-1.703-.03-2.176-.087-.473-.058-.818-.162-1.04-.313a1.233 1.233 0 0 1-.471-.541c-.09-.213-.135-.51-.135-.889-.001-.051.002-.155.006-.313zm24.235-2.077h-.973a2.973 2.973 0 0 1-.015-.256c0-.619.233-1.042.7-1.267.466-.224 1.339-.336 2.621-.336 1.007 0 1.73.045 2.172.136.439.091.784.266 1.036.527.209.205.343.45.406.733.061.284.092.778.092 1.485v3.121h-.931l.021-.691h-.051c-.232.323-.511.532-.839.626-.328.092-.943.139-1.851.139-1.036 0-1.756-.025-2.159-.075-.402-.051-.711-.152-.916-.313a1.184 1.184 0 0 1-.435-.537c-.081-.206-.122-.498-.122-.873 0-.456.063-.808.183-1.055.124-.245.331-.428.622-.548.315-.138 1.055-.206 2.216-.206 1.214 0 2.01.036 2.384.109.374.072.661.249.866.527h.081v-.636c0-.521-.094-.896-.28-1.123-.167-.206-.42-.343-.758-.416-.339-.072-.893-.108-1.661-.108-1.013 0-1.667.059-1.966.177-.295.119-.444.378-.444.778l.001.082zm2.396 1.442c-.771 0-1.309.012-1.616.04-.309.028-.527.079-.654.153-.245.146-.368.414-.368.803 0 .388.145.65.437.787.235.113 1.035.168 2.396.168.994 0 1.65-.065 1.971-.194.32-.128.48-.391.48-.784 0-.384-.177-.641-.535-.773-.362-.134-1.062-.2-2.111-.2zm26.273-3.221h.937v5.79c0 .549-.018.927-.055 1.133a1.308 1.308 0 0 1-.246.571 1.157 1.157 0 0 1-.554.415c-.225.077-.551.115-.987.115h-.149v-.861c.334-.008.555-.025.664-.049a.439.439 0 0 0 .265-.174.6.6 0 0 0 .105-.28 6.87 6.87 0 0 0 .021-.683v-5.977zm0-2.597h.937v1.08h-.937v-1.08zm16.845 2.597h.936v3.001c0 .554.03.95.088 1.188.057.238.172.433.341.584.172.144.408.246.712.308.299.061.725.091 1.274.091.713 0 1.264-.054 1.658-.163.394-.108.689-.287.89-.537.124-.149.211-.339.258-.565.05-.226.072-.553.072-.981v-2.927h.935v5.921h-.935v-.887h-.057c-.238.38-.553.633-.948.766-.394.13-1.055.196-1.978.196-.726 0-1.292-.044-1.704-.131-.413-.087-.733-.233-.966-.437-.215-.182-.364-.436-.448-.754-.087-.32-.128-.787-.128-1.397v-3.276zm4.098-3.114l.926.792-1.617 1.685-.638-.53 1.329-1.947zm18.973 3.114h.936v.892h.068c.201-.379.506-.635.916-.767.41-.133 1.102-.199 2.074-.199.851 0 1.479.047 1.889.14.41.094.731.262.964.509.185.194.313.438.385.733.072.292.108.715.108 1.27v3.344h-.935V55.52c0-.529-.022-.907-.065-1.138a1.258 1.258 0 0 0-.265-.583c-.16-.184-.4-.313-.729-.391-.326-.077-.813-.114-1.463-.114-.725 0-1.29.053-1.693.159-.402.104-.707.28-.913.52a1.365 1.365 0 0 0-.276.59c-.044.217-.065.605-.065 1.163v2.739h-.936v-5.921zm23.248 0h.935v5.921h-.935v-5.921zm0-2.597h.935v1.11h-.935v-1.11zm20.402 2.523c.93 0 1.619.027 2.062.085.443.055.791.157 1.04.309.376.223.646.542.813.956.164.414.248.977.248 1.688 0 .79-.102 1.393-.302 1.804a1.776 1.776 0 0 1-.584.73c-.242.175-.562.301-.953.379-.386.079-1.022.119-1.912.119-.84 0-1.475-.027-1.903-.085-.427-.054-.774-.155-1.043-.302a1.811 1.811 0 0 1-.847-.937c-.172-.415-.257-.995-.257-1.738 0-.833.124-1.464.368-1.892.248-.442.594-.735 1.035-.886.441-.15 1.188-.226 2.235-.23zm.15.824c-.62 0-1.087.023-1.401.067-.317.047-.57.13-.757.25-.222.143-.38.367-.481.671-.101.307-.149.722-.149 1.25 0 .598.065 1.048.201 1.344.133.298.361.51.685.632.357.139 1.055.208 2.09.208.673 0 1.17-.026 1.491-.075.315-.051.568-.142.757-.281.207-.144.355-.365.445-.654.088-.292.134-.701.134-1.229 0-.625-.068-1.082-.212-1.373-.157-.325-.421-.541-.79-.65-.369-.107-1.04-.16-2.013-.16zm19.789-.75h.936v.799h.062c.146-.266.368-.478.668-.631.18-.091.416-.156.707-.189.295-.037.732-.053 1.315-.053s1.018.031 1.302.096c.284.066.529.183.735.353.397.346.599.907.599 1.679v.611h-.962v-.423a3.31 3.31 0 0 0-.064-.747.88.88 0 0 0-.235-.415c-.236-.219-.731-.33-1.479-.33-1.128 0-1.853.146-2.171.439-.317.294-.477.96-.477 2v2.732h-.936v-5.921z"/><path fill="#F48120" d="M30.231 1.093a23.024 23.024 0 0 1 6.413 3.22c-15.137 13.912-13.136 26.296-1.542 38.761a23.183 23.183 0 0 1-5.501 2.403C9.955 32.071 8.9 15.384 30.231 1.093zM40.347 7.61c4.234 4.667 6.575 11.025 5.937 17.767-.573 6.049-3.443 11.345-7.664 15.106C28.516 30.074 28.601 18.384 40.347 7.61zM23.168 46.383a23.483 23.483 0 0 1-2.16-.102C8.292 45.078-1.099 33.724.104 21.005 1.244 8.973 11.472-.081 23.342 0 2.354 16.889 6.584 31.434 23.168 46.383z"/><path fill="#F48120" d="M.001 68.333h298.554v1.951H.001z"/></g></svg>