<svg xmlns="http://www.w3.org/2000/svg" width="168.535" height="217.285" viewBox="65.835 40.858 168.535 217.285"><path d="M178.232 58.594L148.88 40.858 76.103 84.28v86.846l72.777 41.59 75.224-42.812V82.445l-29.963-15.9-74.004 40.975 29.967 19.265 40.975-21.712v48.928l-40.975 22.02-43.422-23.853-.612-50.762z"/><path d="M95.588 245.688c.028.026.042.084.042.164 0 1.614-.027 2.987-.082 4.108-.055 1.125-.137 1.976-.247 2.548-.329 1.891-1.164 3.317-2.506 4.273-.686.467-1.562.809-2.631 1.029-1.068.219-2.342.326-3.821.326h-9.247c-1.808 0-3.365-.115-4.665-.35-1.301-.229-2.377-.607-3.227-1.13-.767-.521-1.41-1.169-1.931-1.95s-.891-1.732-1.109-2.855c-.11-.686-.192-1.688-.247-3a120.748 120.748 0 0 1-.082-5.015c0-4.685.834-7.851 2.506-9.493H68.3c1.671-1.644 4.822-2.465 9.452-2.465h8.59c3.068 0 5.377.614 6.926 1.848 1.546 1.232 2.32 3.099 2.32 5.592v.08c0 .248-.109.369-.329.369h-2.588c-.247 0-.37-.121-.37-.369-.027-.795-.171-1.479-.432-2.054-.261-.575-.705-1.028-1.336-1.356-.465-.219-1.046-.396-1.745-.535-.699-.137-1.516-.205-2.446-.205h-8.836c-1.507 0-2.767.098-3.781.289-1.014.191-1.808.438-2.384.738-1.042.632-1.712 1.795-2.014 3.492-.165.903-.247 3.057-.247 6.452 0 3.591.411 5.903 1.234 6.947.958 1.095 3.123 1.644 6.493 1.644h9.534c2.438 0 4.027-.412 4.768-1.232.329-.385.588-.969.78-1.747.19-.781.288-1.789.288-3.021H80.383c-.273 0-.411-.138-.411-.412v-2.547c0-.273.138-.412.411-.412h14.918c.028 0 .056.018.083.041l.204.208z"/><path d="M124.687 258.143h-.247a.32.32 0 0 0-.042-.125l.042.041-3.082-6.041h-17.303l-3.04 6.041v-.041.125h-3.082c-.247 0-.371-.125-.371-.371v-.041c0-.057.027-.111.083-.164v.082l12.904-25.438c.055-.054.137-.082.247-.082h3.987c.083 0 .128.006.142.021.015.016.035.033.063.063l12.986 25.438v-.08a.375.375 0 0 1 .041.164v.041c0 .244-.109.369-.329.369h-2.999v-.002zm-18.905-9.372h13.848l-6.863-13.645-6.985 13.645z"/><path d="M164.262 258.143c-.246 0-.369-.125-.369-.371V234.88h-.781l-13.397 23.177c-.055.057-.151.082-.288.082h-1.767a.362.362 0 0 1-.164-.039l-13.275-23.22h-.74v22.892c0 .246-.123.371-.37.371h-2.671c-.247 0-.371-.125-.371-.371V232.54c0-.275.125-.411.371-.411h5.919c.082 0 .148.013.205.041l12.042 21.244 12.411-21.203c.058-.054.151-.082.289-.082h5.59c.192 0 .287.136.287.411v25.232c0 .246-.095.371-.287.371h-2.634z"/><path d="M199.029 253.908c-.768 1.699-2.109 2.835-4.027 3.41 0 .024-.016.041-.041.041-.768.246-1.788.438-3.063.574s-2.814.207-4.623.207h-3.861c-1.811 0-3.35-.07-4.626-.207-1.272-.137-2.308-.328-3.104-.574-.025 0-.054-.017-.082-.041-.985-.303-1.808-.741-2.463-1.315a6.732 6.732 0 0 1-1.604-2.097c-.384-.822-.665-1.879-.843-3.164-.18-1.287-.269-2.792-.269-4.521v-13.684c0-.275.109-.411.331-.411h2.587c.248 0 .37.136.37.411v13.684c0 2.795.26 4.795.782 6.002.493 1.123 1.397 1.82 2.713 2.096 1.067.272 3.135.41 6.206.41h3.859c3.069 0 5.14-.138 6.209-.41 1.313-.301 2.177-1 2.588-2.096.303-.576.498-1.365.596-2.363.098-1.002.145-2.213.145-3.639v-13.684c0-.275.139-.411.412-.411h2.547c.246 0 .369.136.369.411v13.684c.002 3.481-.366 6.045-1.108 7.687z"/><path d="M230.592 258.143h-.165c-.054 0-.081-.027-.081-.084l-11.755-11.795-11.507 11.754a.394.394 0 0 1-.288.125h-3.575c-.22 0-.328-.125-.328-.371v-.123c0-.058.026-.109.082-.164l12.658-13.067-11.508-11.632c-.057-.027-.082-.066-.082-.122v-.124c0-.273.139-.411.41-.411h3.74c.054 0 .096.03.123.082l10.314 10.438 10.151-10.438c.026-.052.108-.082.245-.082h3.494c.22 0 .328.138.328.411v.124c0 .056-.027.095-.082.122l-11.343 11.632 12.863 13.067c.055.055.082.106.082.164v.123c0 .246-.108.371-.329.371h-3.447z"/></svg>