<svg xmlns="http://www.w3.org/2000/svg" width="193.656" height="77.876" viewBox="53.253 111.18 193.656 77.876"><path d="M246.908 117.75v64.658c-.029.128-.066.255-.088.384-.144.892-.412 1.741-.881 2.515-1.504 2.485-3.733 3.674-6.627 3.674-59.487-.002-118.977-.002-178.464-.002-.227 0-.454-.002-.681-.014-2.884-.13-5.472-2.023-6.442-4.748-.208-.584-.317-1.203-.472-1.809V117.75c.027-.101.063-.201.079-.303.452-2.992 2.529-5.294 5.451-6.04.319-.081.64-.151.96-.227h180.674c.071.026.144.065.217.078 2.88.489 4.841 2.101 5.859 4.833.198.531.28 1.105.415 1.659zM86.447 145.009v9.73h25.681c-.007.106-.005.159-.014.212-.375 2.307-2.469 4.242-4.916 4.546a7.426 7.426 0 0 1-.917.075c-6.97.004-13.939.007-20.909-.006-.941 0-1.86-.188-2.704-.631-2.061-1.078-3.458-2.619-3.463-5.096-.005-2.631-.013-5.261.003-7.891.009-1.492.61-2.734 1.68-3.767 1.429-1.378 3.159-1.912 5.107-1.911 11.216.006 22.432.003 33.647.003h.537V129.27h-12.343c-8.799 0-17.598.007-26.397-.005-2.153-.003-4.117.535-5.824 1.872-2.764 2.165-4.159 5.016-4.165 8.525-.012 6.943-.009 13.886-.001 20.829.003 2.81.896 5.298 2.826 7.365 1.927 2.065 4.327 3.023 7.15 3.021 9.6-.015 19.2-.006 28.8-.007.267 0 .534-.004.8-.021 2.671-.168 4.86-1.307 6.609-3.313 1.813-2.08 2.575-4.532 2.571-7.262-.007-4.939-.002-9.88-.002-14.82v-.446l-33.756.001zm101.246 9.858h.525c7.25 0 14.502.003 21.752-.008.336-.002.521.102.694.389 3.116 5.102 6.245 10.191 9.362 15.292.149.245.305.341.598.339 2.55-.013 5.102-.007 7.65-.008.123 0 .246-.014.416-.023-3.274-5.344-6.519-10.633-9.81-15.998.349 0 .587.006.825-.002 1.463-.049 2.896-.258 4.266-.799 1.582-.626 2.83-1.633 3.605-3.179.663-1.323.995-2.742 1.043-4.202.074-2.307.079-4.618.064-6.927a12.92 12.92 0 0 0-1.09-5.133c-.759-1.739-1.89-3.153-3.58-4.065-1.644-.886-3.404-1.275-5.271-1.274-12.779.007-25.56.004-38.337.004-.141 0-.281.013-.422.02v11h40.63v4.711h-40.626v25.848h7.699c.007-5.319.007-10.616.007-15.985zm-62.002-9.852v.38c0 4.993-.007 9.987.008 14.981.002.718.046 1.446.173 2.151.802 4.475 4.559 8.392 9.854 8.365 12.737-.063 25.476-.021 38.213-.021h.478v-11.313h-40.935v-4.697h40.943v-9.848c-16.237.002-32.454.002-48.734.002zm.016-4.768h48.717v-10.956c-.132-.007-.236-.018-.343-.018-12.845 0-25.687.002-38.531-.002-2.337-.001-4.402.72-6.163 2.267-2.614 2.296-3.808 5.202-3.68 8.709z"/><path fill="#FFF" d="M53.254 182.408c.154.604.263 1.225.472 1.809.971 2.725 3.559 4.618 6.442 4.748.227.012.454.014.681.014 59.488 0 118.977 0 178.465.002 2.893 0 5.121-1.188 6.627-3.674.468-.772.736-1.623.881-2.515.021-.129.058-.256.087-.384v6.648H53.255l-.001-6.648z"/><path fill="#FFF" d="M59.744 111.18c-.32.076-.642.146-.96.227-2.922.745-4.999 3.048-5.451 6.04-.016.103-.052.202-.079.303v-6.57h6.49z"/><path fill="#FFF" d="M246.908 117.75c-.135-.554-.217-1.128-.414-1.659-1.02-2.733-2.979-4.345-5.859-4.833-.074-.013-.145-.051-.217-.078h6.49v6.57z"/><path fill="#FFF" d="M86.447 145.009h33.757v.446c0 4.94-.005 9.881.002 14.82.004 2.729-.757 5.182-2.571 7.262-1.749 2.006-3.938 3.145-6.609 3.313-.266.019-.534.021-.8.021-9.6.001-19.2-.008-28.8.007-2.824.004-5.223-.954-7.15-3.021-1.93-2.067-2.822-4.557-2.826-7.365-.008-6.942-.011-13.886.001-20.829.006-3.509 1.401-6.36 4.165-8.525 1.707-1.336 3.671-1.875 5.824-1.872 8.799.012 17.598.005 26.397.005h12.343v11.003h-.537c-11.215 0-22.431.003-33.647-.003-1.949-.001-3.679.533-5.107 1.911-1.07 1.032-1.671 2.275-1.68 3.767-.016 2.63-.008 5.26-.003 7.891.005 2.477 1.403 4.018 3.463 5.096.843.441 1.762.631 2.704.631 6.97.013 13.939.01 20.909.006.306 0 .612-.037.917-.075 2.447-.304 4.541-2.239 4.916-4.546.009-.053.007-.104.014-.212H86.448l-.001-9.731z"/><path fill="#FFF" d="M187.693 154.867v15.982h-7.7v-25.847h40.626v-4.711h-40.631v-11c.142-.007.281-.02.423-.02 12.778 0 25.558.003 38.337-.004 1.865-.001 3.627.389 5.27 1.274 1.691.912 2.822 2.326 3.582 4.065a12.968 12.968 0 0 1 1.09 5.133c.014 2.309.01 4.62-.065 6.927-.048 1.46-.38 2.879-1.043 4.202-.774 1.546-2.022 2.553-3.606 3.179-1.367.541-2.802.75-4.265.8-.237.008-.478 0-.825 0l9.811 15.998c-.172.012-.295.024-.416.024-2.551.001-5.103-.005-7.651.008-.293.002-.446-.094-.597-.339-3.118-5.1-6.247-10.191-9.363-15.292-.175-.287-.357-.39-.693-.39-7.252.012-14.502.009-21.752.009-.162.002-.321.002-.532.002z"/><path fill="#FFF" d="M125.691 145.015h48.733v9.848h-40.943v4.697h40.935v11.313h-.477c-12.738 0-25.478-.043-38.214.021-5.295.025-9.051-3.892-9.854-8.365a12.493 12.493 0 0 1-.173-2.151c-.015-4.994-.008-9.988-.008-14.981l.001-.382z"/><path fill="#FFF" d="M125.707 140.247c-.128-3.507 1.066-6.413 3.681-8.71 1.76-1.546 3.825-2.268 6.163-2.267 12.844.004 25.688.002 38.531.002.105 0 .211.011.343.018v10.956l-48.718.001z"/></svg>