<svg xmlns="http://www.w3.org/2000/svg" width="299.958" height="246.563" viewBox="0 0 299.958 246.563"><path fill-rule="evenodd" clip-rule="evenodd" d="M239.105 70.028c-.38-3.694.99-12.897 3.893-20.394 3.477-8.982 7.677-14.825 10.295-16.66L299.958 0l-18.559 39.799c-18.323 13.253 2.104-1.518-42.294 30.229zm-.868 9.458c16.438-12.109 19.939-14.849 40.352-29.433l-17.044 36.552c-3.112 2.269-14.335 10.029-21.271 14.936-.884-4.763-2.926-20.198-2.037-22.055zm20.636 16.758c-4.846 9.409-10.198 22.856-15.046 32.266-.3-6.437-1.694-14.448-2.636-20.329l17.682-11.937zm-17.682 113.848l13.737-.008v6.93l-13.737-6.922zm37.516-7.166l15.162 14.088-35.9-.074.024-30.928 30.553.035-9.839 16.879zm-128.698 43.637l.066-.045.065.045v-.088c8.53-5.652 15.609-11.613 23.866-19.342l-12.625-10.119c-3.791 2.922-6.813 5.25-11.306 8.717-4.495-3.467-7.575-5.795-11.365-8.717l-12.626 10.119c8.256 7.729 15.394 13.689 23.924 19.342l.001.088zm-91.242-36.471l-13.737-.008v6.93l13.737-6.922zm-37.515-7.166L6.089 217.014l35.901-.074-.025-30.928-30.553.035 9.84 16.879zM41.085 96.244c4.846 9.409 10.2 22.856 15.045 32.266.3-6.437 1.695-14.448 2.637-20.329L41.085 96.244zm20.637-16.758C45.283 67.376 41.78 64.637 21.369 50.053l17.045 36.552c3.111 2.269 14.335 10.029 21.271 14.936.883-4.763 2.923-20.198 2.037-22.055zm-.869-9.458c.38-3.694-.989-12.897-3.891-20.394-3.478-8.982-7.679-14.825-10.297-16.66L0 0l18.559 39.799c18.324 13.253-2.104-1.518 42.294 30.229zm89.235 150.39c-.096-.061-.193-.127-.288-.189-.096.063-.193.129-.289.189v-.381c-11.458-7.695-24.088-23.543-30.408.156l-12.839-13.029H45.169v-28.447h31.973c-5.058-6.834-9.152-12.133-12.883-19.068-5.047-9.384-6.038-14.964-5.027-25.461 3.337-20.788 9.428-47.568 6.38-66.516-2.529-15.695-3.626-21.429-16.189-40.318C51.773 23.843 75.359 0 78.412 0h142.776c3.053 0 26.639 23.843 28.988 27.354-12.563 18.889-13.66 24.623-16.188 40.318-3.05 18.947 3.043 45.728 6.38 66.516 1.011 10.497.021 16.077-5.026 25.461-3.732 6.936-7.827 12.234-12.884 19.068h31.975v28.447h-61.096l-12.841 13.029c-6.319-23.699-18.947-7.852-30.407-.156v.381h-.001z"/><path fill-rule="evenodd" clip-rule="evenodd" fill="#FFF" d="M149.956 207.164h-4.244c.8 1.199 2.491 4.248 4.243 4.248l.001-4.248zm.053-201.693H80.65c-2.917 0-19.837 18.83-21.883 21.883 11.25 21.261 14.378 45.074 11.376 69.037-1.308 10.436-3.265 20.122-4.63 29.404-2.242 15.218-2.463 23.031 6.864 36.896 4.626 6.875 7.064 10.691 12.65 16.025h64.921l.03-86.623.03 86.623h64.92c5.586-5.334 8.025-9.15 12.651-16.025 9.327-13.866 9.104-21.678 6.864-36.896-1.366-9.282-3.323-18.968-4.629-29.404-3.004-23.963.125-47.776 11.375-69.037-2.046-3.054-18.968-21.883-21.884-21.883h-69.296zm-.007 201.693h4.243c-.8 1.199-2.49 4.248-4.242 4.248l-.001-4.248z"/><path fill-rule="evenodd" clip-rule="evenodd" fill="#FFA500" d="M150.007 9.332H83.195c-2.744 0-16.286 15.104-18.21 18.022 10.58 20.313 12.739 45.951 9.916 68.846-1.229 9.969-3.069 19.224-4.354 28.091-2.108 14.541-2.316 22.005 6.455 35.253 4.351 6.568 9.973 14.076 15.225 19.17h115.781c5.253-5.094 10.596-12.602 14.946-19.17 8.772-13.248 8.563-20.713 6.455-35.253-1.283-8.867-3.125-18.122-4.353-28.091-2.822-22.896-.688-48.533 9.892-68.846-1.924-2.918-15.263-18.022-18.006-18.022h-66.935z"/><path fill-rule="evenodd" clip-rule="evenodd" d="M137.731 44.768c.384-.081.884-.063 1.25-.004.366.058.599.155.909.305.308.15.694.352 1.414.498.719.146 1.771.237 2.554.336.781.101 1.293.211 1.616.347.325.134.46.293.65.515l.888 1.035c.452.526 1.109 1.294 1.755 1.878.646.585 1.282.988 1.996 1.508.715.52 1.506 1.155 2.386 1.582.879.428 1.844.647 2.795.863.953.216 1.891.431 2.686.494.794.063 1.445-.024 2.095-.111.648-.086 1.295-.172 1.653-.065.359.107.43.408.494.689.065.282.126.542.052 1.189a16.056 16.056 0 0 1-.499 2.391c-.218.714-.442 1.111-.754 1.502-.314.393-.718.78-1.172 1.104-.455.325-.96.587-1.223.817-.259.23-.276.427-.299.687-.021.26-.048.582.139 1.085.186.502.584 1.186.888 1.705.303.52.51.874.69 1.208s.334.645.399 1.207c.063.563.04 1.376.105 2.452a44.02 44.02 0 0 0 .337 3.217c.118.805.199 1.077.135 1.329-.065.252-.276.485-.49.715-.214.229-.43.457-.484.668-.055.21.053.406.147.67.094.265.175.6.306 1.136.132.536.31 1.271.445 1.955.136.684.227 1.317.388 2.071.163.755.396 1.631.54 2.426.142.795.197 1.509.251 2.169.054.66.108 1.266.397 1.683s.813.646 1.221.842c.404.194.691.355.793.485.099.13.015.23-.087.347-.1.117-.215.252-.32.495a2.554 2.554 0 0 0-.201.902c-.003.306.083.566.354.685.272.12.73.099 1.205.077.476-.021.972-.044 1.287-.194.313-.148.446-.423.627-.793.18-.369.405-.832.567-1.341s.26-1.065.297-1.738c.039-.674.016-1.465-.126-2.072-.143-.608-.405-1.033-.648-1.465-.243-.433-.468-.874-.903-1.403-.438-.528-1.086-1.145-1.724-1.65-.635-.507-1.257-.901-1.584-1.31s-.359-.831-.302-1.271c.056-.441.202-.9.383-1.323.182-.421.399-.806.678-1.516.277-.712.616-1.75.949-2.78.329-1.03.647-2.053 1.061-3.117.413-1.064.919-2.17 2.448-4.887 1.529-2.717 4.081-7.044 6.872-10.96 2.792-3.916 5.82-7.421 8.173-10.07 2.356-2.649 4.035-4.441 5.016-5.543s1.262-1.513 1.567-1.785c.308-.271.641-.404.974-.538.014.242.027.482.114.72.086.239.246.473.302.678.058.206.012.382.072.528.061.146.227.261.396.376.271-.159.54-.318 3.206-3.125 2.665-2.807 7.728-8.262 10.866-11.573 3.139-3.31 4.358-4.475 5.348-5.496.988-1.021 1.745-1.897 2.343-2.443s1.036-.763 1.474-.979c.181.268.362.536.388 1.102.027.566-.104 1.432-.341 2.297-.239.865-.585 1.73-.844 2.466-.26.735-.434 1.341-.498 1.757-.062.415-.017.639.028.864.375-.179.748-.357 1.157-.686.41-.329.857-.808 1.208-1.133.353-.326.614-.5.872-.673l-.162 1.088c-.065.432-.146.97-.575 2.148a31.001 31.001 0 0 1-2.399 5.006c-1.189 2.013-2.791 4.22-4.391 6.231-1.601 2.012-3.203 3.83-4.479 5.388-1.276 1.557-2.229 2.855-2.878 3.678-.648.822-.993 1.168-1.206 1.408a2.53 2.53 0 0 0-.364.508c.38-.048.759-.095 1.327-.49.565-.396 1.32-1.139 2.319-2.104.999-.964 2.243-2.148 3.981-3.908s3.97-4.094 5.355-5.473c1.385-1.38 1.921-1.803 2.38-2.265.456-.463.832-.963 1.228-1.348.393-.385.805-.655 1.216-.925.068.308.138.615.086 1.31a11.974 11.974 0 0 1-.549 2.729c-.324.952-.802 1.774-1.71 3.181a135.83 135.83 0 0 1-3.82 5.572 288.723 288.723 0 0 1-4.409 5.901c-1.036 1.363-1.317 1.728-1.593 2.092.431-.129.866-.259 1.492-.692.628-.432 1.45-1.167 2.928-2.477 1.48-1.309 3.616-3.191 4.862-4.19 1.245-.999 1.6-1.116 1.956-1.232.128.288.26.574.313.881s.027.633-.115 1.273a9.634 9.634 0 0 1-1.006 2.673c-.607 1.082-1.56 2.293-2.338 3.354a58.702 58.702 0 0 0-1.954 2.839c-.568.873-1.097 1.708-1.411 2.193-.312.486-.405.621-.501.757.15.068.298.135.721-.047.42-.182 1.111-.615 1.827-1.056a84.738 84.738 0 0 1 2.029-1.222c.574-.331.986-.544 1.396-.757-.11.49-.222.979-.429 1.505-.206.526-.511 1.088-.943 1.998-.432.908-.994 2.163-1.989 3.526-.996 1.363-2.423 2.835-4.002 4.349-1.581 1.514-3.311 3.072-4.428 4.121-1.119 1.047-1.626 1.586-1.999 2.058-.376.472-.618.877-.861 1.283.575-.079 1.15-.157 1.85-.5.701-.341 1.521-.948 2.742-1.73a104.587 104.587 0 0 1 4.008-2.41c1.165-.668 1.876-1.044 2.414-1.296.538-.251.903-.379 1.27-.506.024.371.048.74-.067 1.169-.116.428-.371.915-.863 1.83-.494.915-1.23 2.256-2.695 3.739-1.464 1.484-3.656 3.108-5.496 4.601-1.839 1.493-3.323 2.854-4.672 3.988s-2.561 2.043-3.209 2.564c-.647.52-.731.653-.814.785.245.076.488.15.791.192.301.042.659.05 2.072-.529 1.413-.581 3.879-1.749 5.892-2.571 2.012-.822 3.57-1.299 4.629-1.73 1.061-.433 1.624-.823 2.127-1.075.505-.252.952-.369 1.398-.485.024.309.051.619.01.977-.039.357-.146.762-.729 1.682-.581.92-1.641 2.355-2.904 3.485-1.266 1.128-2.736 1.952-4.056 2.665-1.32.714-2.488 1.32-3.181 1.731-.692.412-.908.627-1.082.805-.175.176-.309.315-.441.453.479.165.958.33 1.675.369.714.039 1.666-.047 2.682-.307 1.018-.26 2.101-.693 2.793-.964.694-.272.999-.382 1.269-.441.271-.059.51-.065.748-.071.063.333.127.667-.188 1.461-.314.794-1.008 2.049-2.263 3.174-1.254 1.126-3.071 2.121-4.853 2.903-1.782.783-3.524 1.354-5.349 1.902a212.087 212.087 0 0 1-5.041 1.429c-1.313.355-2.036.543-2.54.684-.505.14-.789.231-1.076.322.112.226.227.453.542.566.318.113.837.113 2.148.085a369.12 369.12 0 0 0 4.995-.142c1.576-.058 2.621-.115 3.593-.212.97-.097 1.864-.232 2.65-.35.782-.119 1.455-.22 1.943-.278.487-.059.795-.073 1.099-.088-.015.252-.029.504-.313.947s-.837 1.076-1.909 1.731c-1.072.656-2.667 1.335-4.375 1.898-1.71.562-3.534 1.008-4.907 1.231-1.369.223-2.287.223-2.827.223h-.871c.121.333.242.666.595.838.35.171.927.182 1.543.244.619.062 1.272.177 1.943.254.672.078 1.358.12 2.003.179.647.06 1.254.137 1.822.147.567.011 1.098-.046 1.578-.021.477.024.904.131 1.33.239a6.987 6.987 0 0 1-.796.56c-.375.229-.912.517-2.198 1.073-1.285.555-3.32 1.378-4.921 1.918-1.601.541-2.771.801-3.463.931s-.907.13-1.123.13c.001.262.004.525.056.734.049.209.146.367.56.629.416.264 1.146.634 1.688.932.54.297.891.523 1.24.747-.108.2-.216.4-.634.715-.418.315-1.146.745-1.941 1.068a8.386 8.386 0 0 1-2.679.604c-1.017.065-2.186-.021-2.89-.012-.704.009-.946.115-1.187.221.135.172.271.346.541.553.274.207.681.448.994.627s.533.298.75.417c-.231.082-.466.163-.791.277s-.742.26-1.472.355c-.729.095-1.767.138-3.044.073-1.276-.065-2.789-.239-4.651-.649a46.12 46.12 0 0 1-5.904-1.752 38.607 38.607 0 0 1-4.197-1.886c-.886-.458-1.186-.64-1.582-.769-.398-.127-.889-.205-1.116-.03-.227.173-.188.595-.117.917.071.323.178.548.402 1.245.226.697.572 1.864 1.07 2.816.498.951 1.147 1.688 1.679 2.107.53.421.944.526 1.378.552s.889-.029 1.094.092c.204.121.157.416-.051.59-.207.176-.58.233-.956.319-.377.085-.76.199-.812.46-.054.263.229.674.704 1.018.478.343 1.147.618 2.068.768.925.148 2.098.169 2.813.267.719.097.978.271 1.26.362.281.093.584.104.626.23.044.126-.173.37-.49.618-.318.247-.737.499-1.466.755-.729.254-1.768.515-2.568.623-.799.109-1.363.065-1.666.261-.303.194-.346.627-.367.995-.021.367-.021.67.324 1.059.346.39 1.038.866 1.946 1.493.909.627 2.034 1.407 3.009 2.208.974.801 1.795 1.622 2.769 2.293.974.671 2.1 1.19 3.354 1.363 1.255.172 2.64 0 3.459-.123.821-.124 1.079-.196 1.51-.435a9.615 9.615 0 0 0 1.479-1.014c.435-.374.698-.717.907-1.116a6.49 6.49 0 0 0 .494-1.331c.13-.476.229-.977.575-1.685.347-.71.938-1.626 1.566-2.016.626-.389 1.29-.251 1.717-.07.427.181.619.405.838.597.22.191.465.35.643.606.179.257.29.612.461.983.17.372.402.759.555 1.24.154.48.233 1.058.32 1.527.088.469.186.832.276 1.193.091.36.173.719.354.947.183.226.46.318.792.382.331.063.715.097.905.309.188.212.184.602.176 1.058-.006.456-.014.978.025 1.823s.125 2.014.079 2.673c-.048.658-.229.807-.435.897-.203.09-.43.123-.517.359-.087.235-.033.672-.073 1.106-.04.432-.176.86-.411 1.155-.232.297-.566.461-.84.696-.274.233-.49.538-.534 1.011-.043.479.087 1.127.021 1.731-.064.606-.324 1.169-.649 1.731-.324.564-.713 1.127-1.155 1.381-.442.256-.938.205-1.147.027-.208-.176-.134-.48-.142-.824s-.1-.727-.17-.971-.118-.346-.307-.367c-.186-.021-.511.039-.738.004-.227-.031-.355-.156-.581-.289-.225-.135-.543-.279-.793-.432-.25-.155-.431-.315-.562-.513-.131-.201-.212-.44-.318-.764-.109-.325-.246-.735-.574-1.093-.326-.355-.847-.659-1.286-.92s-.799-.481-1.211-.61a3.065 3.065 0 0 0-1.266-.119 2.183 2.183 0 0 0-1.016.411c-.305.217-.587.506-.946 1.083-.358.579-.791 1.444-1.311 2.072-.518.628-1.125 1.017-1.751 1.124-.628.109-1.276-.064-1.796-.193-.521-.131-.909-.217-1.126-.023-.216.197-.259.672-.237 1.17s.109 1.018.021 1.43c-.087.41-.346.711-.743.746-.395.033-.929-.201-1.188-.072-.259.129-.246.625-.131 1.047.115.42.331.766.355.998.025.232-.143.352-.619.266-.476-.088-1.261-.379-1.956-.699-.694-.316-1.3-.664-1.992-1.27s-1.472-1.471-1.914-2.504c-.441-1.031-.547-2.229-.244-3.182.304-.952 1.015-1.657 1.846-2.162.832-.506 1.783-.807 2.612-1.028.83-.221 1.534-.358 2.08-.504.547-.146.934-.303.992-.549.057-.246-.216-.586-.459-.85-.241-.266-.457-.457-.986-1.016-.527-.563-1.368-1.497-2.429-2.469-1.06-.975-2.34-1.988-3.206-2.767-.862-.779-1.315-1.323-1.842-1.6-.525-.277-1.127-.288-1.661-.323-.532-.037-1-.1-1.389-.27-.39-.171-.703-.45-1.133-.79-.429-.341-.979-.744-1.47-1.228-.49-.482-.923-1.045-1.27-1.197-.346-.151-.605.109-.756.542-.151.432-.195 1.038.042 2.012.238.973.756 2.314 1.32 3.655.562 1.341 1.168 2.682 1.644 3.808s.822 2.035.909 2.662-.087.973-.521 1.147c-.432.172-1.125.172-1.891.049-.768-.123-1.608-.369-1.932-.309-.323.063-.129.428-.012.723.117.297.159.522.283 1.378.126.854.333 2.339.571 4.155.238 1.818.505 3.969.747 6.234.243 2.264.459 4.645.546 6.42.087 1.773.044 2.943-.194 3.633-.237.691-.672.908-1.212.607-.54-.305-1.19-1.125-1.751-2.143-.564-1.016-1.041-2.229-1.349-2.996-.309-.768-.451-1.09-.601-1.523-.15-.436-.309-.979-.514-1.129-.204-.15-.454.098-.619.461-.166.361-.246.84-.322 1.396-.075.557-.146 1.193-.222 1.848-.073.656-.15 1.332-.318 2.082-.167.748-.428 1.57-.753 2.566-.324.994-.712 2.164-1.168 3.156a15.508 15.508 0 0 1-1.339 2.35c-.368.531-.581.775-.949.383-.368-.389-.89-1.408-1.315-2.514a26.555 26.555 0 0 1-.953-3.135 13.084 13.084 0 0 1-.352-2.076 45.669 45.669 0 0 1-.171-2.57c-.024-.746 0-1.182.022-1.572.021-.389.04-.732-.03-.947-.07-.213-.23-.299-.428-.406-.199-.105-.437-.234-.79-.127-.354.107-.821.451-1.138.842-.315.389-.478.824-.608 1.172-.129.346-.227.602-.511 1.012-.287.41-.763.971-1.233 1.426a7.396 7.396 0 0 1-1.38 1.066 10.2 10.2 0 0 1-1.29.621c-.092-.254-.185-.508-.217-.922a7.088 7.088 0 0 1 .081-1.514c.083-.52.221-.988.502-2.373.281-1.383.707-3.686 1.121-5.938.416-2.254.822-4.453 1.1-5.76.277-1.304.424-1.712.574-2.25a22.5 22.5 0 0 0 .426-1.878c.125-.676.221-1.368.309-1.862.085-.495.162-.795-.012-.931-.173-.133-.595-.102-1.033-.068-.438.033-.892.064-1.316.139-.424.072-.82.188-1.295.285-.476.096-1.033.176-1.444.119-.412-.055-.677-.25-.912-.42-.236-.17-.441-.317-.614-.596a1.832 1.832 0 0 1-.261-1.161c.053-.469.299-1 .643-1.661.343-.66.784-1.448 1.333-2.346.549-.896 1.206-1.9 1.665-2.908.458-1.008.717-2.017.766-2.559.047-.543-.118-.616-.352-.581-.235.036-.539.183-.846.5-.308.319-.617.81-1.098 1.272-.481.462-1.134.898-2.246 1.037-1.113.14-2.687-.017-3.808.069-1.122.087-1.792.419-2.669 1.079-.878.663-1.963 1.653-2.787 2.331-.822.679-1.382 1.043-2.008 1.521-.625.479-1.318 1.067-1.604 1.556-.287.487-.168.87.003 1.237.171.367.396.715 1.076.954.679.239 1.811.364 2.724.512.913.146 1.605.314 2.175.737.569.426 1.016 1.106 1.338 1.873.321.764.518 1.614.171 2.484-.348.868-1.241 1.755-1.911 2.526-.671.771-1.121 1.426-1.611 1.939a7.856 7.856 0 0 1-1.432 1.16c-.409.266-.692.418-1.045.533a4.382 4.382 0 0 1-1.075.205c-.301.01-.479-.047-.586-.367-.108-.318-.146-.904-.148-1.387-.003-.48.029-.859-.081-1.07-.111-.211-.366-.254-.563-.424-.197-.17-.338-.467-.379-.809-.041-.342.02-.727-.116-.922-.135-.193-.465-.197-.796-.252-.33-.055-.662-.158-1.062-.221s-.87-.084-1.209-.283-.551-.579-.814-1.031c-.265-.449-.581-.973-1-1.28-.419-.309-.941-.403-1.521-.555s-1.218-.364-1.854-.303c-.635.059-1.269.389-1.859.743-.592.352-1.14.727-1.652 1.132s-.988.836-1.378 1.119c-.389.281-.692.412-.988.4-.297-.014-.586-.168-.799-.391-.212-.224-.347-.515-.614-.362-.268.154-.668.755-1.053 1.282s-.754.982-1.134 1.24c-.379.254-.77.311-1.205.27-.434-.041-.914-.178-1.246-.461-.331-.283-.515-.711-.523-1.498-.011-.79.153-1.939.238-3.081.083-1.142.087-2.273-.278-3.567-.365-1.292-1.098-2.744-1.486-4.011-.388-1.266-.431-2.35-.359-3.318s.258-1.827.589-2.68.808-1.702 1.212-2.27c.404-.567.737-.85 1.299-1.369.562-.517 1.354-1.273 2.174-1.89.819-.618 1.666-1.1 2.494-1.313s1.636-.161 2.062-.01c.426.151.47.4.488.897.02.498.013 1.244.023 1.884.01.639.034 1.172.11 1.807.077.634.208 1.37.328 1.996.12.626.23 1.142 1.239 1.389 1.007.249 2.911.227 4.625.172 1.714-.054 3.24-.141 4.569-.69 1.33-.551 2.463-1.565 3.239-2.235.776-.671 1.195-.999 1.662-1.432.465-.432.979-.97 1.538-1.509a21.795 21.795 0 0 1 1.635-1.437c.468-.361.798-.544.814-.801.017-.257-.281-.587-.87-.767s-1.467-.209-2.472-.233c-1.005-.023-2.136-.042-2.811-.126s-.894-.237-1.112-.391c.182-.219.362-.438.722-.679.359-.24.896-.504 1.484-.728.588-.223 1.228-.406 1.894-.641.665-.233 1.358-.52 1.937-.739s1.043-.372 1.429-.763c.385-.392.691-1.021 1.125-1.899.434-.877.996-2.002 1.472-2.912.476-.907.865-1.601 1.116-2.057.25-.455.361-.674.39-.903.028-.228-.026-.466-.08-.705-.287-.205-.573-.411-.901-.356-.327.053-.694.367-1.495.822-.801.455-2.034 1.049-3.343 1.595-1.308.546-2.693 1.044-4.244 1.354-1.552.31-3.269.432-4.725.472-1.456.039-2.649-.004-3.722-.134-1.074-.129-2.024-.345-2.976-.561.155-.13.31-.261.789-.59.48-.331 1.284-.859 1.699-1.271.416-.412.442-.708.467-1.004-.848.005-1.697.01-2.935-.032s-2.862-.131-3.983-.26c-1.122-.128-1.738-.295-2.356-.543-.618-.248-1.237-.575-1.636-.876-.399-.301-.577-.578-.755-.853.416-.114.833-.227 1.301-.284.467-.057.987-.057 1.433-.141.446-.084.82-.252 1.328-.354.508-.102 1.15-.139 1.794-.252.643-.114 1.289-.304 1.659-.497.372-.193.469-.387.566-.583-.194-.113-.39-.226-1.095-.29-.703-.063-1.918-.078-2.958-.149a16.179 16.179 0 0 1-2.82-.424 15.271 15.271 0 0 1-2.735-.936 10.865 10.865 0 0 1-2.336-1.471c-.737-.601-1.472-1.326-2.205-2.052.365-.083.73-.167 1.281-.166.55.001 1.285.088 1.839.138.553.049.923.063 1.26.013.336-.051.639-.164.942-.277-.129-.292-.26-.584-.683-.794-.423-.209-1.14-.336-1.868-.52a16.142 16.142 0 0 1-4.316-1.789 19.684 19.684 0 0 1-1.982-1.32c-.535-.413-.87-.752-1.068-1.048-.198-.297-.26-.553-.322-.808.21-.011.421-.022 1 .03.579.051 1.525.164 2.534.25s2.079.146 3.108.153c1.029.007 2.017-.04 2.993-.014.976.024 1.941.119 2.595.09.653-.028.993-.181 1.194-.315a.861.861 0 0 0 .325-.372 1.935 1.935 0 0 0-.623-.433c-.359-.172-.947-.385-1.824-.644-.878-.258-2.047-.561-3.193-.929s-2.271-.8-3.189-1.243-1.63-.895-2.439-1.431a80.233 80.233 0 0 1-2.546-1.756c-.828-.597-1.574-1.171-2.137-1.674-.562-.502-.942-.936-1.236-1.469-.294-.532-.505-1.165-.643-1.676a6.98 6.98 0 0 1-.233-1.248 8.98 8.98 0 0 1-.02-.959c.173-.013.347-.026.757.162.411.188 1.061.577 1.764.938.703.359 1.461.689 2.24 1.011s1.58.636 2.461.901c.881.265 1.844.481 2.479.601.634.121.939.145 1.429.297.49.151 1.164.43 1.621.564.458.133.702.123.945.111.005-.238.011-.476-.508-.873-.52-.398-1.563-.955-2.677-1.548-1.115-.592-2.3-1.219-3.376-1.851a47.654 47.654 0 0 1-2.863-1.826c-.813-.559-1.47-1.04-2.056-1.53a11.874 11.874 0 0 1-1.526-1.512c-.428-.518-.77-1.053-1.072-1.522-.303-.47-.569-.875-.832-1.283s-.525-.817-.654-1.306c-.128-.487-.124-1.055-.118-1.621.343.045.687.092.958.182.272.09.472.227.718.396.246.17.539.376 1.134.652.596.276 1.495.623 2.149.893.655.27 1.064.465 1.44.581.375.116.715.154.918.224.203.07.268.173.455.235.186.063.495.084.755.105.259.021.47.043.728.152.257.107.562.302.856.402.294.1.58.106.865.111a1.897 1.897 0 0 0-.13-.578 1.439 1.439 0 0 0-.481-.589c-.244-.179-.579-.326-1.088-.694-.51-.369-1.194-.962-1.947-1.625-.753-.665-1.575-1.399-2.397-2.308a29.664 29.664 0 0 1-2.185-2.769c-.541-.779-.801-1.255-1.097-1.788-.295-.534-.627-1.125-.844-1.774s-.317-1.356-.39-2.2c-.074-.845-.12-1.826-.167-2.808.401.33.801.66 1.204.979.404.32.809.628 1.41 1.076.601.447 1.397 1.035 2.095 1.592.698.557 1.297 1.084 2.013 1.645.716.561 1.549 1.156 2.289 1.593.74.437 1.386.715 1.9.939.514.224.895.395 1.276.565-.064-.378-.129-.757-.33-1.09-.201-.333-.536-.619-1.263-1.139-.728-.519-1.847-1.27-2.781-2.155-.933-.885-1.682-1.902-2.366-2.858-.686-.956-1.31-1.85-1.967-2.643-.658-.794-1.351-1.486-2.086-2.287a42.081 42.081 0 0 1-2.101-2.463c-.585-.753-.978-1.35-1.207-1.812-.231-.461-.299-.789-.289-1.086s.101-.567.147-.833.049-.53.148-.799c.099-.269.293-.544.488-.818.284.371.568.742.871 1.152.303.412.624.863.958 1.24.334.377.68.681 1.125.884.445.205.989.31 1.533.415-.021-.225-.041-.45-.053-.741-.012-.291-.016-.646-.163-1.057-.147-.409-.437-.872-.718-1.239-.281-.368-.554-.642-.933-1.048-.377-.407-.86-.948-1.272-1.533-.411-.584-.75-1.211-1.092-1.98-.343-.768-.689-1.676-.904-2.653-.215-.978-.299-2.024-.383-3.07.43.224.86.448 1.334.734.475.285.994.631 1.492.978.498.346.973.692 1.538 1.042.564.352 1.218.707 1.705.995.489.288.812.508 1.135.729.122-.286.244-.572.104-.915-.139-.342-.542-.739-.911-1.217-.37-.479-.708-1.039-1.1-1.568-.392-.53-.836-1.032-1.405-1.844a39.681 39.681 0 0 1-1.769-2.83 16.304 16.304 0 0 1-1.192-2.504c-.364-.957-.769-2.212-.996-3.16a10.808 10.808 0 0 1-.307-2.016c-.026-.429-.026-.646-.026-.862.476.519.952 1.039 1.406 1.492.454.455.887.845 1.514 1.339.626.495 1.448 1.097 2.292 1.875.844.779 1.71 1.735 2.468 2.517s1.406 1.388 1.904 1.864c.497.475.844.822 1.137 1.047.293.227.534.333.774.438-.023-.366-.048-.731-.298-1.195-.25-.464-.727-1.026-1.263-1.644-.538-.619-1.135-1.292-1.758-2.083a37.986 37.986 0 0 1-2.035-2.875c-.763-1.177-1.639-2.621-2.181-3.497-.542-.876-.749-1.184-.94-1.612-.193-.427-.369-.973-.563-1.455-.193-.48-.405-.897-.535-1.352-.129-.454-.179-.946-.24-1.409-.062-.461-.138-.895-.144-1.362-.005-.468.06-.971.125-1.474.138.1.276.2.431.488.156.289.329.764.55 1.025.22.261.488.307.669.184.182-.123.277-.416.273-.721-.004-.304-.107-.62-.161-1.636a53.613 53.613 0 0 1-.024-3.713c.031-.978.095-1.215.16-1.452.154.138.309.276.494.496.185.22.402.523.606.879.204.356.396.765 1.013 1.622.617.857 1.659 2.164 3.423 3.993 1.764 1.83 4.252 4.183 6.297 6.091 2.045 1.908 3.649 3.371 5.076 4.727 1.427 1.357 2.676 2.606 3.639 3.236.962.63 1.637.641 2.094.647.457.005.696.005.91.083.214.079.403.235.49.47s.07.549.103.919c.033.371.114.798.249 1.123s.324.546.78 1.311c.456.763 1.177 2.07 2.36 3.804 1.184 1.735 2.828 3.898 4.148 5.413 1.319 1.515 2.315 2.38 3.137 3.483.822 1.104 1.471 2.446 2.553 4.393 1.081 1.947 2.595 4.5 3.98 6.859 1.385 2.357 2.64 4.521 3.765 6.577s2.12 4.002 2.748 5.452c.627 1.45.887 2.402.972 3.036s-.004.951-.307 1.427c-.303.477-.819 1.111-1.402 1.711a21.31 21.31 0 0 1-1.902 1.702c-.671.541-1.363 1.061-1.947 1.601-.584.541-1.061 1.104-1.355 1.568-.294.466-.408.834-.521 1.319-.113.486-.226 1.09-.189 1.705.036.614.221 1.241.601 1.765.379.524.954.945 1.646 1.272.691.325 1.498.556 2.186.615.688.058 1.255-.054 1.573-.221.318-.167.386-.386.449-.654.063-.267.119-.583.141-.833.021-.249.008-.43-.097-.64-.104-.209-.298-.447-.485-.66-.187-.214-.364-.403-.464-.602a.994.994 0 0 1-.093-.595c.028-.191.105-.368.189-.529.083-.162.173-.311.364-.496.192-.185.483-.406.876-.866.392-.459.884-1.157 1.372-2.059.488-.901.973-2.005 1.341-2.781.368-.776.619-1.224.862-1.721.243-.495.479-1.039.697-1.598.22-.561.422-1.137.416-1.559-.007-.424-.223-.694-.483-.905s-.563-.362-.753-.564-.269-.456-.298-.788c-.03-.333-.011-.745.103-1.004.114-.258.324-.362.524-.463.2-.1.39-.195.715-.225.325-.028.785.009 1.096-.072.312-.081.474-.281.612-.56s.25-.636.352-.963c.101-.328.187-.625.262-.933.076-.308.141-.627.192-.968.052-.342.091-.705.001-.995-.09-.29-.307-.504-.745-.602s-1.098-.075-1.561-.143c-.462-.068-.729-.227-.941-.526-.214-.3-.376-.744-.54-1.353-.164-.61-.329-1.385-.545-2.219-.217-.833-.486-1.725-.802-2.359-.314-.635-.676-1.011-1.185-1.383-.509-.372-1.166-.739-1.553-1.158-.386-.419-.503-.891-.447-1.265.055-.374.282-.65.248-.938-.034-.289-.328-.588-.681-.962-.351-.373-.76-.819-1.215-1.308-.455-.488-.959-1.018-1.357-1.487-.399-.47-.693-.878-.913-1.3a4.165 4.165 0 0 1-.434-1.355c-.072-.5-.072-1.062-.072-1.625.167.26.335.52.586.85.252.33.586.73.94 1.099.352.37.723.708 1.209 1.002a6.08 6.08 0 0 0 1.561.662c.468.115.804.093 1.139.072.06-.417.12-.833.277-1.359a9.008 9.008 0 0 1 .652-1.588c.237-.426.453-.642.777-.922.325-.282.758-.628 1.122-.97.363-.343.658-.681.939-.94.284-.258.551-.439.935-.52z"/><path fill-rule="evenodd" clip-rule="evenodd" fill="#FFA500" d="M134.38 51.529c.277-.039.681-.039.977.044.297.082.487.246.657.41.171.164.322.329.411.512s.114.385.126.562c.012.176.012.328.012.479 0 .151 0 .304-.063.379-.063.076-.188.076-.296.019-.108-.057-.196-.171-.291-.279-.095-.107-.195-.208-.284-.315-.088-.107-.164-.221-.233-.315a2.094 2.094 0 0 0-.233-.272 3.554 3.554 0 0 0-.341-.302.95.95 0 0 0-.285-.146 4.142 4.142 0 0 0-.429-.139c-.133-.032-.221-.032-.297-.07-.075-.037-.138-.113-.138-.182 0-.07.063-.133.17-.202s.259-.146.537-.183z"/><path fill-rule="evenodd" clip-rule="evenodd" fill="#FFA500" d="M137.568 54.81c.092-.049.26.021.374.077.112.056.168.098.267.176.099.078.239.19.337.337.099.148.155.331.268.464.112.134.282.219.38.261.099.042.126.042.147.119.021.077.035.231.078.358a.84.84 0 0 0 .183.303c.07.077.141.133.197.239.057.105.098.26.155.401.056.141.126.267.14.387.015.119-.028.232-.035.33-.007.099.021.183-.049.219-.07.034-.239.021-.352-.064-.112-.084-.168-.239-.231-.388a2.244 2.244 0 0 0-.218-.407 1.069 1.069 0 0 0-.295-.29c-.112-.07-.239-.112-.331-.182-.091-.071-.147-.169-.211-.275s-.134-.218-.19-.331c-.057-.113-.099-.225-.148-.302a.387.387 0 0 0-.183-.155c-.078-.035-.176-.063-.254-.112-.077-.05-.133-.12-.154-.254-.021-.134-.007-.33.007-.513s.027-.349.118-.398z"/><path fill-rule="evenodd" clip-rule="evenodd" fill="#FFA500" d="M145.07 54.579c.121-.072.376-.022.556.009.179.031.281.043.367.044.086.002.157-.005.232.011a.959.959 0 0 1 .225.096c.07.037.133.071.169.12.037.049.047.114.092.168.044.053.124.096.251.108.127.012.301-.006.402.098.103.103.133.328.141.51.008.182-.005.322-.023.439-.019.116-.041.209-.123.314s-.225.224-.382.269c-.158.045-.332.019-.434-.071-.1-.09-.128-.244-.182-.32-.055-.076-.134-.074-.231-.079a.507.507 0 0 1-.301-.09c-.089-.072-.15-.205-.258-.292-.106-.088-.257-.132-.354-.197-.098-.064-.141-.151-.17-.268a2.93 2.93 0 0 1-.062-.432c-.018-.169-.035-.364.085-.437z"/><path fill-rule="evenodd" clip-rule="evenodd" fill="#FFA500" d="M99.262 140.11c.103-.118.25-.059.354-.014.103.042.163.073.251.119a.874.874 0 0 1 .281.19c.073.089.103.206.205.34.104.132.282.281.415.414.132.133.221.249.28.383.059.133.088.28.088.428s-.029.295-.103.385c-.075.086-.192.117-.326.133-.133.014-.28.014-.413 0-.132-.016-.251-.047-.31-.133-.059-.09-.059-.237-.118-.37-.06-.133-.178-.252-.281-.37a3.702 3.702 0 0 1-.28-.367.975.975 0 0 1-.192-.503c-.013-.222.046-.516.149-.635z"/><path fill-rule="evenodd" clip-rule="evenodd" fill="#FFA500" d="M125.658 150.78c-.108 0-.21.057-.298.096s-.162.059-.223.113c-.061.053-.109.142-.168.237s-.126.197-.198.273c-.07.076-.144.123-.212.168-.069.045-.132.082-.181.137a.602.602 0 0 0-.116.213c-.031.09-.06.201-.131.311-.071.107-.184.211-.261.295a.93.93 0 0 0-.166.236c-.041.084-.08.182-.124.297a1.23 1.23 0 0 0-.098.379c-.005.133.034.266.105.338.071.078.173.096.288.025s.242-.23.339-.363c.098-.131.166-.234.267-.299.1-.068.231-.098.371-.143.139-.047.286-.109.398-.256.112-.145.19-.369.293-.531.103-.16.229-.258.34-.4.109-.141.203-.326.217-.498a.656.656 0 0 0-.137-.45.42.42 0 0 0-.305-.178z"/><path fill-rule="evenodd" clip-rule="evenodd" fill="#FFA500" d="M102.159 147.067c-.119-.061-.297-.146-.461-.162a.605.605 0 0 0-.464.164 1.525 1.525 0 0 0-.382.545 2.217 2.217 0 0 0-.159.721c-.015.246.003.49.009.723.006.23 0 .453-.002.7-.003.246-.003.521.049.696a.423.423 0 0 0 .256.291.487.487 0 0 0 .314.029c.116-.023.251-.086.458-.219.208-.137.489-.342.69-.479.201-.139.324-.205.477-.25.153-.041.336-.061.464-.143s.202-.229.211-.348-.046-.209-.071-.35a1.785 1.785 0 0 1 .007-.504c.024-.174.067-.334-.019-.481-.086-.146-.299-.281-.51-.412-.211-.131-.419-.258-.553-.34a3.66 3.66 0 0 0-.314-.181z"/><path fill-rule="evenodd" clip-rule="evenodd" fill="#FFA500" d="M170.534 154.346c.113-.037.171-.084.186-.188a.739.739 0 0 0-.087-.4c-.069-.137-.184-.25-.315-.365-.133-.113-.281-.229-.408-.359-.126-.131-.228-.283-.334-.402a.943.943 0 0 0-.338-.262c-.121-.053-.258-.064-.358-.012-.101.051-.163.166-.209.291-.045.125-.074.266-.074.428s.029.352.128.514c.101.164.272.301.432.408.161.109.309.188.46.258.151.068.307.125.471.139.16.014.331-.015.446-.05z"/><path fill-rule="evenodd" clip-rule="evenodd" fill="#FFA500" d="M192.14 149.232c-.127-.043-.183-.043-.267.035a1.652 1.652 0 0 0-.268.368 1.246 1.246 0 0 0-.135.406 8.09 8.09 0 0 0-.065.551 4.57 4.57 0 0 0-.029.464c0 .139.012.271-.005.422-.016.15-.061.318-.089.43-.027.109-.038.166.039.178.078.012.245-.023.357-.09s.168-.166.2-.283c.033-.117.044-.25.121-.379.079-.129.224-.25.347-.351.122-.102.223-.18.288-.279a.857.857 0 0 0 .122-.379 2.11 2.11 0 0 0 .019-.494.5.5 0 0 0-.185-.362 1.669 1.669 0 0 0-.45-.237z"/><path fill-rule="evenodd" clip-rule="evenodd" fill="#FFA500" d="M193.725 142.949c.006.155.052.348.143.524.091.178.227.338.398.485.172.15.375.285.577.336.198.053.393.018.53-.016.137-.035.215-.068.296-.148a.815.815 0 0 0 .194-.33c.033-.125.022-.252-.074-.348-.098-.098-.279-.166-.399-.258-.119-.09-.178-.206-.206-.375s-.028-.4-.068-.592c-.039-.195-.12-.354-.233-.451-.114-.098-.263-.131-.377-.08-.113.051-.193.188-.263.348-.067.16-.126.342-.198.434-.074.092-.166.092-.229.148s-.098.168-.091.323z"/><g fill="#FFF"><path d="M55.438 198.443v-11.824c0-.246.089-.455.266-.625a.88.88 0 0 1 .636-.258h10.95c.247 0 .457.09.631.266a.88.88 0 0 1 .261.637v.893a.865.865 0 0 1-.261.633.86.86 0 0 1-.631.26h-8.272v2.764h7.123c.247 0 .458.088.632.262a.86.86 0 0 1 .261.631v.893a.862.862 0 0 1-.261.633.86.86 0 0 1-.632.26h-7.123v2.803h8.253c.24 0 .446.084.617.256s.256.381.256.627v.912c0 .246-.089.457-.266.631s-.389.262-.636.262H56.34c-.247 0-.459-.088-.636-.262s-.266-.394-.266-.654z"/><path d="M69.151 192.451c0-2.412.649-4.182 1.947-5.309 1.298-1.127 3.205-1.691 5.722-1.691s4.416.535 5.698 1.605 1.923 2.803 1.923 5.195c0 1.266-.247 2.297-.741 3.096a10.538 10.538 0 0 1-1.121 1.539h1.51c.259 0 .475.086.646.26s.257.385.257.633v.777c0 .248-.086.459-.257.633s-.386.26-.646.26h-7.294c-2.501 0-4.4-.563-5.698-1.689-1.297-1.127-1.946-2.897-1.946-5.309zm7.645 4.436c2.71 0 4.065-1.545 4.065-4.635 0-1.438-.32-2.502-.959-3.195-.639-.693-1.67-1.041-3.091-1.041-1.421 0-2.457.377-3.105 1.131-.649.754-.974 1.855-.974 3.305s.324 2.551.974 3.305c.648.753 1.679 1.13 3.09 1.13z"/><path d="M86.161 193.971v-7.332a.88.88 0 0 1 .261-.637.88.88 0 0 1 .65-.266h1.776c.24 0 .449.09.626.266a.874.874 0 0 1 .266.637v7.352c0 .93.204 1.623.612 2.078.409.457 1.04.684 1.895.684h1.52c.854 0 1.486-.227 1.895-.684.408-.455.612-1.148.612-2.078v-7.352a.88.88 0 0 1 .261-.637.858.858 0 0 1 .631-.266h1.767c.26 0 .478.09.655.266a.874.874 0 0 1 .266.637v7.332c0 1.734-.51 3.078-1.529 4.031-1.019.953-2.507 1.43-4.463 1.43h-1.709c-1.963 0-3.452-.477-4.468-1.43s-1.524-2.297-1.524-4.031z"/><path d="M102.381 198.48v-11.842c0-.246.089-.459.266-.637a.872.872 0 0 1 .636-.266h1.767a.88.88 0 0 1 .65.266.88.88 0 0 1 .261.637v11.824c0 .246-.09.457-.271.631a.896.896 0 0 1-.641.262h-1.767c-.247 0-.459-.084-.636-.252s-.265-.374-.265-.623z"/><path d="M108.687 198.463v-11.824c0-.246.085-.459.256-.637a.843.843 0 0 1 .627-.266h7.246c3.831 0 5.746 1.766 5.746 5.295s-1.915 5.295-5.746 5.295h-4.549v2.137a.86.86 0 0 1-.261.631.862.862 0 0 1-.631.262h-1.786c-.247 0-.459-.088-.636-.262s-.266-.385-.266-.631zm3.581-4.824h3.466c1.063 0 1.871-.18 2.422-.537s.826-1.047.826-2.07c0-1.021-.275-1.713-.826-2.07s-1.358-.537-2.422-.537h-3.466v5.214z"/><path d="M124.31 198.443v-11.824c0-.246.089-.455.266-.625a.88.88 0 0 1 .636-.258h10.95c.247 0 .457.09.631.266a.88.88 0 0 1 .261.637v.893a.865.865 0 0 1-.261.633.86.86 0 0 1-.631.26h-8.272v2.764h7.123c.247 0 .458.088.632.262a.86.86 0 0 1 .261.631v.893a.862.862 0 0 1-.261.633.86.86 0 0 1-.632.26h-7.123v2.803h8.253c.24 0 .446.084.617.256s.256.381.256.627v.912c0 .246-.089.457-.266.631s-.389.262-.636.262h-10.902c-.247 0-.459-.088-.636-.262s-.266-.394-.266-.654z"/><path d="M145.611 198.463v-11.824c0-.246.085-.459.256-.637a.843.843 0 0 1 .627-.266h7.246c3.83 0 5.746 1.766 5.746 5.295s-1.916 5.295-5.746 5.295h-4.549v2.137a.86.86 0 0 1-.261.631.862.862 0 0 1-.631.262h-1.786c-.247 0-.459-.088-.636-.262s-.266-.385-.266-.631zm3.581-4.824h3.466c1.064 0 1.871-.18 2.422-.537s.826-1.047.826-2.07c0-1.021-.275-1.713-.826-2.07s-1.357-.537-2.422-.537h-3.466v5.214z"/><path d="M161.234 198.463v-11.824a.87.87 0 0 1 .266-.637.895.895 0 0 1 .655-.266h1.767c.247 0 .457.09.631.266a.878.878 0 0 1 .262.637v4.273h6.534v-4.273a.87.87 0 0 1 .266-.637.874.874 0 0 1 .636-.266h1.767c.26 0 .477.09.65.266a.878.878 0 0 1 .262.637v11.824a.847.847 0 0 1-.271.631.896.896 0 0 1-.642.262h-1.767a.893.893 0 0 1-.636-.252.82.82 0 0 1-.266-.623V193.6h-6.534v4.881a.828.828 0 0 1-.262.623.875.875 0 0 1-.631.252h-1.767c-.247 0-.462-.088-.646-.262s-.274-.385-.274-.631z"/><path d="M190.222 197.945c-1.294 1.137-3.193 1.703-5.697 1.703-2.505 0-4.405-.566-5.703-1.703s-1.947-2.936-1.947-5.398.649-4.262 1.947-5.395 3.198-1.701 5.703-1.701c2.504 0 4.403.568 5.697 1.701 1.295 1.133 1.942 2.932 1.942 5.395s-.647 4.262-1.942 5.398zm-2.597-8.789c-.64-.76-1.674-1.141-3.101-1.141-1.428 0-2.464.381-3.105 1.141-.644.76-.965 1.891-.965 3.395s.321 2.633.965 3.391c.642.756 1.678 1.135 3.105 1.135s2.461-.379 3.101-1.135c.639-.758.959-1.887.959-3.391s-.32-2.635-.959-3.395z"/><path d="M194.113 198.443v-11.824a.83.83 0 0 1 .266-.625.883.883 0 0 1 .637-.258h10.949c.247 0 .458.09.632.266a.88.88 0 0 1 .261.637v.893a.865.865 0 0 1-.261.633.86.86 0 0 1-.632.26h-8.271v2.764h7.123c.246 0 .457.088.631.262s.262.385.262.631v.893c0 .248-.088.459-.262.633s-.385.26-.631.26h-7.123v2.803h8.253c.24 0 .446.084.617.256s.256.381.256.627v.912a.85.85 0 0 1-.266.631.878.878 0 0 1-.636.262h-10.902a.878.878 0 0 1-.637-.262.884.884 0 0 1-.266-.654z"/><path d="M208.605 198.463v-11.824c0-.246.085-.459.256-.637a.843.843 0 0 1 .627-.266h2.792c.222 0 .456.09.703.266.247.178.449.391.607.637l5.736 8.822v-8.842c0-.246.087-.455.261-.625a.868.868 0 0 1 .632-.258h1.634c.247 0 .457.086.632.258.174.17.261.385.261.645v11.824a.86.86 0 0 1-.261.631.864.864 0 0 1-.632.262H218.7c-.247 0-.5-.088-.76-.262s-.465-.385-.617-.631l-5.252-8.148v8.148a.86.86 0 0 1-.261.631.864.864 0 0 1-.632.262h-1.671a.878.878 0 0 1-.637-.262.853.853 0 0 1-.265-.631z"/><path d="M225.471 198.48v-11.842a.87.87 0 0 1 .266-.637.874.874 0 0 1 .637-.266h1.766c.26 0 .477.09.65.266a.878.878 0 0 1 .262.637v11.824c0 .246-.09.457-.271.631s-.395.262-.642.262h-1.766a.894.894 0 0 1-.637-.252.82.82 0 0 1-.265-.623z"/><path d="M231.14 199.355c-.316 0-.494-.143-.532-.428 0-.139.067-.295.2-.465l4.786-6.107-4.511-5.717c-.133-.164-.199-.318-.199-.465 0-.291.174-.438.521-.438h2.042c.633 0 1.188.301 1.662.902l2.603 3.305 2.602-3.305c.469-.594 1.022-.895 1.662-.902h2.042c.348 0 .522.146.522.438 0 .139-.066.295-.199.465l-4.512 5.717 4.787 6.107c.133.164.199.297.199.398s-.013.174-.038.219c-.069.184-.234.275-.494.275h-2.022c-.633 0-1.185-.299-1.652-.893l-2.896-3.695-2.896 3.695c-.469.594-1.02.893-1.653.893h-2.024z"/></g></svg>