<svg id="Layer_1" xmlns="http://www.w3.org/2000/svg" viewBox="0 0 500 500"><style>.st0{display:none;fill:#fff}.st1{fill:#393e45}.st2{fill:#ef404d}</style><path id="XMLID_14_" class="st0" d="M419.6 81v39.8H260.2V81h159.4zm0 59.7v39.8H260.2v-39.8h159.4zm0 59.7v39.8H260.2v-39.8h159.4z"/><g id="XMLID_2_"><path id="XMLID_18_" class="st1" d="M240 240H80V80h40v120h80V80h40v160z"/><path id="XMLID_7_" class="st1" d="M80 260h160v40H80v-40zm0 100v-40h160v100H80v-40h120v-20H80z"/><path id="XMLID_5_" class="st1" d="M260 420V260h40v120h120v40H260z"/><g id="XMLID_3_"><path id="XMLID_10_" class="st1" d="M420 80v40H260V80h160zm-60.3 60v40H260v-40h99.7zm60.3 60v40H260v-40h160z"/><path id="XMLID_4_" class="st2" d="M420 180.2h-40.2V140H420z"/></g></g></svg>