<svg viewBox="0 0 254 214" xmlns="http://www.w3.org/2000/svg"><path d="M169.807 181.404l-27.896-27.644c4.896-5.967 7.785-12.771 8.552-20.5h70.567c.721 3.068 2.146 5.658 4.417 7.931a288.95 288.95 0 0 1-26.713 21.814c-8.138 5.878-19.464 13.185-28.776 18.31" stroke="#d74030" fill-opacity="0" stroke-width="2" stroke-linecap="round" stroke-linejoin="round"/><path d="M109.999 7.861v85.646l-7.26 1.489L70.998 17.68c11.006-5.142 26.252-9.364 39.086-9.864" stroke="#d74030" fill-opacity="0" stroke-width="2" stroke-linecap="round" stroke-linejoin="round"/><path d="M148.342 20.952c1.15 2.515 2.906 4.555 5.276 6.24l-28.357 67.891c-2.494-.514-4.936-1.018-7.402-1.525-.217-.799-.313-83.607-.076-85.708 5.031-.512 23.38 2.16 29.332 4.28-.255 2.062-.344 5.374 1.25 8.889" stroke="#d74030" fill-opacity="0" stroke-width="2" stroke-linecap="round" stroke-linejoin="round"/><path d="M65.558 20.559l31.57 76.714-6.831 4.579L33.46 45.038c4.921-6.383 22.457-19.889 32.124-24.639" stroke="#d74030" fill-opacity="0" stroke-width="2" stroke-linecap="round" stroke-linejoin="round"/><path d="M59.804 188.884l30.586-30.57c10.106 8.093 21.637 10.4 34.408 6.92l7.781 19.439c-5.189 3.698-7.482 8.633-6.994 14.967-21.928 3.385-45.835.26-65.752-10.657" stroke="#d74030" fill-opacity="0" stroke-width="2" stroke-linecap="round" stroke-linejoin="round"/><path d="M167.957 28.801c2.122-.853 3.979-2.148 5.606-3.912 8.343 5.308 15.289 12.034 21.153 19.69l-57.104 57.367-6.757-4.542c9.416-22.504 18.864-45.088 28.35-67.757 2.341.425 5.504.386 8.551-.786" stroke="#d74030" fill-opacity="0" stroke-width="2" stroke-linecap="round" stroke-linejoin="round"/><path d="M29.012 50.051l56.501 56.493-4.33 6.575-70.48-29.45c.906-6.298 10.715-25.354 18.131-33.77" stroke="#d74030" fill-opacity="0" stroke-width="2" stroke-linecap="round" stroke-linejoin="round"/><path d="M216.388 84.76l-69.702 28.579-4.554-6.832 56.377-56.373c6.456 9.467 13.407 22.931 17.866 34.514" stroke="#d74030" fill-opacity="0" stroke-width="2" stroke-linecap="round" stroke-linejoin="round"/><path d="M223.105 122.141c-.908 1.463-1.54 3.057-1.979 4.795h-70.56l-1.546-7.887 69.673-28.57c3.434 8.853 6.448 17.75 9.189 26.814-1.453 1.003-3.644 3.105-4.752 4.818" stroke="#d74030" fill-opacity="0" stroke-width="2" stroke-linecap="round" stroke-linejoin="round"/><path d="M9.189 89.633l69.585 29.091-1.59 8.23H10.135c-1.928-10.713-2.445-25.514-.969-37.306" stroke="#d74030" fill-opacity="0" stroke-width="2" stroke-linecap="round" stroke-linejoin="round"/><path d="M11.87 133.262h65.312l1.579 7.988c-17.129 7.028-34.315 14.079-51.61 21.177-5.37-7.904-12.568-19.61-15.318-29.11" stroke="#d74030" fill-opacity="0" stroke-width="2" stroke-linecap="round" stroke-linejoin="round"/><path d="M31.277 167.286l49.795-20.434 4.667 7.064-31.547 31.649c-7.374-4.67-17.191-11.75-22.858-18.167" stroke="#d74030" fill-opacity="0" stroke-width="2" stroke-linecap="round" stroke-linejoin="round"/><path d="M150.841 186.058c-3.414-2.95-7.57-4.126-12.572-3.532l-7.828-19.506 7.09-4.693 26.267 26.291c-3.204 1.618-6.466 3.267-9.805 4.952-.427-.599-1.44-2.051-3.128-3.488" stroke="#d74030" fill-opacity="0" stroke-width="2" stroke-linecap="round" stroke-linejoin="round"/><path d="M229.834 134.149c-1.021-2.125-.984-3.171-.985-4.036-.005-5.06 4.158-9.281 9.188-9.248 5.614.038 9.378 4.957 9.006 9.197.363 4.903-4.129 9.203-9.016 9.146-3.601-.042-6.716-2.082-8.219-5.06" stroke="#d74030" fill-opacity="0" stroke-width="2" stroke-linecap="round" stroke-linejoin="round"/><path d="M154.052 18.659c-.719-1.531-.969-2.75-.953-4.046-.005-5.06 4.158-9.281 9.188-9.248 5.614.038 9.378 4.957 9.006 9.197.363 4.903-4.129 9.203-9.016 9.146-3.601-.042-6.716-2.082-8.219-5.06" stroke="#d74030" fill-opacity="0" stroke-width="2" stroke-linecap="round" stroke-linejoin="round"/><path d="M132.917 201.185c-1.021-2.125-.984-3.172-.985-4.036-.005-5.06 4.158-9.281 9.188-9.247 5.614.037 9.378 4.956 9.006 9.196.363 4.903-4.129 9.203-9.016 9.146-3.601-.042-6.716-2.082-8.219-5.061" stroke="#d74030" fill-opacity="0" stroke-width="2" stroke-linecap="round" stroke-linejoin="round"/></svg>