<svg xmlns="http://www.w3.org/2000/svg" width="300.074" height="298.861" viewBox="0 0 300.074 298.861"><path fill-rule="evenodd" clip-rule="evenodd" fill="#71706E" d="M120.233 156.725c.84 0 1.521 1.521 1.521 3.399 0 1.876-.681 3.397-1.521 3.397-.839 0-1.521-1.521-1.521-3.397 0-1.878.682-3.399 1.521-3.399z"/><path fill-rule="evenodd" clip-rule="evenodd" fill="#000001" d="M150.037 0C67.173 0 0 66.902 0 149.431c0 82.527 67.173 149.431 150.037 149.431 82.861 0 150.037-66.903 150.037-149.431C300.074 66.902 232.898 0 150.037 0zM49.887 107.021c1.209 3.321 2.913 6.472 5.724 9.05 2.708 2.484 9.057 6.579 1.424 6.084-3.889-.252-7.443-2.218-10.778-5.314a106.76 106.76 0 0 1 3.63-9.82zm-3.915 10.762c.889 5.498 2.338 10.393 3.131 12.078.884 1.878 1.804 5.389 4.175 7.573 3.268 3.011 3.345 3.978-1.974 3.463-3.265-.316-6.479-.996-9.475-2.149a106.603 106.603 0 0 1 4.143-20.965zm103.846 138.926c-55.179 0-100.733-40.901-107.588-93.833 2.352 2.384 4.381 4.122 5.871 4.78-.507 6.862.506 14.41 5.178 20.583 1.683 10.856 7.702 15.333 16.635 15.469 1.944.03 3.579-.354 4.919-1.035 13.546 28.077 34.761 43.505 62.6 46.527 11.025 1.197 24.43-4.792 41.353-10.667l52.257-18.143c-19.875 22.274-48.896 36.319-81.225 36.319zm34.341-196.434c-23.216-8.994-39.289-14.889-47.639-14.11-27.98 2.612-52.81 22.655-65.892 55.795-3.335 8.448-5.455 10.183-9.061 3.884-1.711-2.988-3.924-5.993-6.722-8.917A108.57 108.57 0 0 1 149.818 41.3c32.927 0 62.423 14.567 82.318 37.562l-47.977-18.587z"/><path fill-rule="evenodd" clip-rule="evenodd" fill="#ED1C24" d="M197.502 204.071c7.546-11.963 11.701-30.84 12.425-57.09-3.176-1.304-3.494-2.6-.517-3.884-.609-17.949-4.311-34.523-11.133-49.71-5.405 1.209-5.989-.604-2.591-4.919-12.8-22.192-29.788-37.406-56.053-37.153-1.607 2.552-2.925 2.324-4.014-.129-29.96 1.131-47.627 20.354-59.289 48.416 8.2-6.482 16.667-12.162 23.306-19.416 7.42-8.109 18.673-8.418 29.581-1.942 4.006 2.378 5.948 1.245 8.544-1.877 1.833-2.205 3.93-3.758 6.019-4.984-.14 5.971-1.66 11.254-4.66 15.729-2.294 3.422-7.935 7.283-10.227 8.673 5.904 2.239 13.192 3.243 22.205 2.848 6.177-.27 12.1-2.143 17.675-6.342.063 8.124-4.03 14.413-11.456 16.797-6.063 1.946-14.408 1.731-24.271 1.458 11.343 7.002 21.928 14.026 31.847 21.07 7.205 1.355 13.844 3.433 20.52 5.373 6.69 1.944 8.095 2.791 1.779 4.499-2.947.797-5.794 1.35-8.654 1.93-1.711.347-3.374.691-4.885 1.447-7.536 3.769-15.097 6.956-22.98 8.696-8.389 1.851-9.611 3.782-2.027 8.406 8.022 4.891 14.827 10.858 20.828 16.907 1.882 1.896 4.93 4.248 7.167 5.899 2.68 1.977 2.765 3.481-.349 3.085l-5.575-.714a16.781 16.781 0 0 0-5.89-.128c-3.404.524-6.896.384-11.359.548-5.514.205-5.772 1.953-.907 4.532 5.169 2.74 7.308 7.51 7.313 12.622.006 5.918-.224 9.771 3.462 13.624 3.488 3.646 1.075 7.847-4.309 10.877-4.678 2.06-9.738 2.984-15.019 2.913-3.129-.043-6.714-1.149-10.569-4.028-2.841-2.123-5.866-3.299-9.791-2.92-3.341.324-7.152-.171-10.746-2.458-3.286-2.089-5.31-3.446-6.86-3.49-3.314-.095-6.29-2.077-8.868-5.372-3.042-3.888-6.149-7.873-10.098-11.263-4.221-3.625-6.761-3.146-8.037-.736 10.468 23.969 36.419 44.15 58.01 42.86 1.903-3.711 3.663-3.497 5.307-.13 21.141-3.374 39.573-12.589 51.908-34.955-2.629-5.971-2.071-8.404 3.238-5.569z"/><path fill-rule="evenodd" clip-rule="evenodd" fill="#71706E" d="M142.797 224.796c6.285-2.41 12.009-5.161 16.57-8.607 3.742 3.111 4.987 7.513.646 9.839-5.716 3.063-12.011 1.489-17.216-1.232zm-15.865-23.732c-2.668 7.528-5.709 14.781 2.219 16.655 3.481.822 7.125 2.497 11.521 2.914 4.099.387 6.875-.598 7.749-2.74.34-.835 1-1.776 2.482-2.188 1.543-.428 2.024-1.17 1.754-3.093l-1.058-7.522c-.16-1.68.217-1.435 1.288-3.443 1.551-2.909.491-7.358-5.992-9.481-9.569-3.133-5.945-4.272-.033-5.664 2.616-.613 8.674-1.323 11.638-1.308 6.707.039 7.42-1.758-.47-5.36-8.458-3.557-17.322-3.239-25.373 3.235-6.216 4.999-6.638 8.261-5.34 10.259 1.599 2.465.585 5.156-.385 7.736zm-65.414-28.953c-6.966-.242-10.334 1.12-10.1 5.024.139 2.332 1.084 4.852 3.775 6.809 1.158.843 2.144 1.44 2.238 2.77.157 2.224.086 3.23.543 4.892.834 3.032 4.042 6.823 9.311 7.488 3.478.44 7.819-.82 10.737-2.88 2.571-1.815 5.151-1.18 7.832-.318 2.247.725 5.262.788 8.716.476.176-2.683.559-5.482 3.472-6.838l10.078-4.684c5.604-2.604 7.702-5.156 8.026-10.398.495-8.014 1.041-15.726 1.737-25.833.305-4.427.964-4.045 2.381 1.375 1.026 3.928 2.496.43 2.276-1.909-.22-2.341-.832-2.572-1.268-4.636-.483-2.28.728-3.25 2.458-4.691 1.328-1.106 2.198-5.759 1.993-12.551.229-2.625.327-5.439 1.882-8.103.846-1.452 2.098-3.091 2.89-3.84.637-.602 1.034.3 1.101 1.457.964 16.565 2.208 33.002 5.184 48.317.484 2.492.468 4.343-.925 5.457-3.188 2.553-4.445 4.427-6.719 8.035-1.539 2.442-.168 2.934 2.541 2.245 3.372-.854 6.576-3.063 9.977-5.046 2.851-2.52 6.667-3.226 10.655-1.186 3.512 1.797 7.162 2.551 10.614 3.106-3.067-3.101-7.443-6.366-13.549-10.269-3.855-2.466-7.35-5.796-10.788-9.408 5.532-3.873 12.429-7.615 21.318-10.27 3.659-1.094 7.42-1.989 10.872-3.625 5.134-2.43 4.297-5.042-.517-7.076-20.215-8.547-34.578-18.109-42.59-28.739 7.747.889 15.627 1.239 23.604 1.208l-5.221-7.725c-11.233-.623-18.931-1.261-21.879-4.186 4.161-3.144 7.318-5.63 9.409-7.509-8.384-13.623-22.747-14.613-34.262-2.244-2.667 2.25-5.484 4.25-5.696 7.508-.09 1.389-.669 2.613-3.193 3.539-1.24.454-4.316 2.296 0 2.589 11.715.794 9.066 4.717-1.641 6.645-6.233 1.123-9.448 1.988-10.294 6.723-.227 1.262-1.593 4.551-3.521 5.441-2.941 1.356-3.5 2.673-4.547 5.735 5.431 1.585 6.704 2.839 3.677 5.287-1.64.665-1.629 4.609-.876 8.929.58 3.329.204 6.251-.662 9.558-3.908 14.933-6.942 19.901-11.049 23.351z"/><path fill-rule="evenodd" clip-rule="evenodd" fill="#000001" d="M102.333 103.145c-.383 2.578 1.596 2.769 2.979 1.254 1.403-1.536 1.537-1.296 3.494.428 2.864 2.523 1.703 2.47.193 3.754-4.106 3.498-4.325 5.812-.193 7.25 3.247 1.13 5.124 4.013 6.084 7.896.692 2.788 1.898 5.094 3.302 7.185-1.124-2.573-2.024-5.203-1.554-7.832.817-4.557 1.874-8.229-2.395-8.091-1.279.041-2.095-.622-2.783-1.165-1.451-1.147-1.081-1.481 1.359-3.171 4.787-3.317 6.993-9.891 5.793-19.321-.604-4.751-1.155-7.613-.84-8.868-1.409 2.932-3.491 5.355-6.587 7.148-2.606 1.509-5.17 5.135-6.898 8.002-.773 1.285-1.598 3.143-1.954 5.531z"/><path fill-rule="evenodd" clip-rule="evenodd" fill="#000001" d="M86.553 145.79l2.978-2.039c-.325.562-.366 1.359-.906 1.715-.583.385-1.382.217-2.072.324z"/><path fill-rule="evenodd" clip-rule="evenodd" fill="#000001" d="M80.049 163.168c4.391-8.072 12.335-15.019 21.813-20.841-4.154 3.098-7.678 5.899-10.228 8.48 3.336-.827 6.989-1.019 10.843-.809-3.475 5.168-6.157 9.126-10.276 9.967-1.83.372-1.965 2.594-4.514.681-.807-.608-1.307-.375-2.758 1.55-.714.947-2.517 1.14-4.88.972z"/><path fill-rule="evenodd" clip-rule="evenodd" fill="#000001" d="M110.32 153.205l-6.082 6.023c-2.041 2.022 1.847 4.774 5.348 2.166l5.686-4.239c-1.428.166-2.712.045-3.806-.058-1.053-.099-1.508-.061-1.619-.84-.115-.813-.142-1.785.473-3.052z"/><path fill-rule="evenodd" clip-rule="evenodd" fill="#000001" d="M66.453 185.762c-1.339 1.779-1.665 3.15.129 4.985 3.813 3.212 2.517 1.272 4.498-1.102 1.647-1.971 4.368-.923.292-3.819-3.575-2.539-3.5-1.949-4.919-.064z"/><path fill-rule="evenodd" clip-rule="evenodd" fill="#FFF" d="M89.846 153.984c3.495.574 3.795 2.475 3.494 4.602 3.231-1.512 6.358-4.619 7.174-7.511-3.918-.327-7.96.992-10.668 2.909z"/><path fill-rule="evenodd" clip-rule="evenodd" fill="#000001" d="M89.143 188.228c-.112-4.44-1.049-6.552 2.762-9.628l6.328-6.051c3.272-2.803 7.521-3.487 13.382-1.197 3.213 1.253 1.663 3.539-2.266 5.372-4.013 1.872-7.982 4.362-11.909 7.443-1.883 1.479-2.868 3.664-4.014 5.631-1.975 3.395-4.117 4.896-4.283-1.57z"/><path fill-rule="evenodd" clip-rule="evenodd" fill="#FFF" d="M90 182.136l-.13 2.588 2.653-1.683c2.812-1.781 3.066-1.468 2.163-3.461l-.776-1.714c-.931 1.207-3.887 3.779-3.91 4.27z"/><path fill-rule="evenodd" clip-rule="evenodd" fill="#FFF" d="M95.137 176.657c.171 1.487.454 2.598.971 3.139l2.46-1.278c.721-.375 1.995-2.028 1.729-3.21-.498-2.198-.939-2.577-2.802-.845l-2.358 2.194z"/><path fill-rule="evenodd" clip-rule="evenodd" fill="#FFF" d="M100.704 174.439c-.571-1.216-.121-2.194 2.492-2.849 1.676-.419 2.495-.089 2.994.615 1.234 1.418.625 1.957-2.216 2.864l-2.687.858-.583-1.488z"/><path fill-rule="evenodd" clip-rule="evenodd" fill="#FFF" d="M90.163 185.646l-.186 2.636c.144 1.449.9 1.389 1.91.341l3.787-3.934c.188-1.18.183-2.231-.145-3.066-1.95 1.844-3.679 3.182-5.366 4.023z"/><path fill-rule="evenodd" clip-rule="evenodd" fill="#FFF" d="M96.503 180.423a23.385 23.385 0 0 0 4.984-3.334c.732.11 1.929.927 1.748 1.101-1.697 1.628-3.242 2.711-5.632 3.932-.557.284-.703.365-.841-.356l-.259-1.343z"/><path fill-rule="evenodd" clip-rule="evenodd" fill="#FFF" d="M102.758 176.497c2.012-.843 3.565-1.638 5.048-2.33l1.01.945c-1.3.824-2.725 1.536-4.24 2.168-.25.176-1.988-.692-1.818-.783z"/><path fill-rule="evenodd" clip-rule="evenodd" fill="#FFF" d="M106.619 171.336l.901 1.547 1.894.242c.361.081.075-1.505-.13-1.602-.885-.272-1.78-.345-2.665-.187z"/><path fill-rule="evenodd" clip-rule="evenodd" fill="#FFF" d="M109.463 173.396l-.042.874a8.84 8.84 0 0 0 1.845.023c.057-.294.049-.6-.023-.913a10.765 10.765 0 0 0-1.78.016z"/><path fill-rule="evenodd" clip-rule="evenodd" fill="#FFF" d="M26.694 134.313c6.365 14.728 16.333 26.119 29.385 34.435 2.842 1.811 4.649 1.495 6.085-.777 4.747-7.511 6.064-14.669 8.672-22.266-12.947 2.384-27.743-1.694-44.142-11.392zm22.072-12.169c3.637 9.05 9.989 15.28 18.964 18.836 2.067.818 3.525.69 3.302-1.036-.639-4.946-.558-8.937 1.876-11.263-7.853 1.102-15.942-1.77-24.142-6.537z"/><path fill-rule="evenodd" clip-rule="evenodd" fill="#000001" d="M60.024 166.372c-8.046-4.906-14.889-11.17-21.619-17.606 4.61 5.984 9.215 11.147 14.11 15.274 2.085 1.758 3.102 2.709 5.656 3.144 1.228.209 2.656-.325 1.853-.812zm3.15-7.066c1.115.197.884 2.117-.366 1.661-2.611-.953-4.239-2.734-5.825-4.629 2.781 2.011 4.807 2.723 6.191 2.968zm-.229-1.995c-5.365-1.735-9.058-4.174-13.276-7.38 4.851 2.862 9.03 4.251 13.974 5.769 1.18.363.582 2.026-.698 1.611zm-6.997-7.511c2.346 1.712 3.328 2.43 6.019 3.366.816.193 2.238.474 2.867-.095.449-.404.82-1.363-.921-1.41-2.074-.057-4.165-.576-7.965-1.861zm-20.642-7.066c3.965 3.227 6.942 5.806 11.333 6.843.764.18 1.694-1.34-.617-2.096-2.31-.757-6.311-2.286-10.716-4.747z"/><path fill-rule="evenodd" clip-rule="evenodd" fill="#000001" d="M55.271 128.388c3.22 2.707 5.942 3.925 9.708 4.79 1.249.286 2.896.499 3.302-.194-4.004-.951-8.314-2.436-13.01-4.596zm4.214 4.546c2.584 1.331 4.946 2.347 6.926 2.815-.218.286-1.043.557-1.398.502-3.489-.525-4.36-2.406-5.528-3.317z"/><path fill-rule="evenodd" clip-rule="evenodd" fill="#FFF" d="M202.087 89.57c12.776 4.027 26.466 5.374 42.166 9.797 1.487.418 4.429 3.585 5.19 6.449-5.354-2.205-23.191-6.013-44.104-11.585-1.664-.443-2.931-2.723-3.252-4.661zm1.319 114.178c-.548.142-1.77 2.274-3.199 5.382 13.419-3.111 28.018-6.623 44.661-11.651 2.022-.612 3.936-3.258 5.372-6.99-4.553 1.867-24.242 7.378-46.834 13.259zm10.938-60.263v4.304l44.015-.162.033-4.272-44.048.13z"/><path fill="#FFF" d="M95.187 251.872l7.357 4.191-8.09 14.197a13.786 13.786 0 0 1-2.931 3.608 9.903 9.903 0 0 1-3.935 2.108c-1.473.402-2.827.497-4.072.296-1.732-.288-3.604-1.002-5.607-2.145a37.487 37.487 0 0 1-3.656-2.406c-1.278-.941-2.243-1.918-2.89-2.924-.645-1.008-1.1-2.172-1.354-3.492-.26-1.324-.26-2.537-.006-3.642.409-1.773.946-3.245 1.613-4.417l8.09-14.197 7.357 4.192-8.282 14.536c-.74 1.298-.959 2.52-.657 3.653.304 1.143 1.095 2.08 2.37 2.806 1.26.718 2.458.924 3.591.613 1.124-.308 2.065-1.124 2.818-2.444l8.284-14.533z"/><path fill="#FFF" d="M101.213 256.206l7.664 1.963 6.211 17.225 3.756-14.674 7.758 1.986-6.805 26.577-7.757-1.987-6.174-17.13-3.736 14.593-7.72-1.977 6.803-26.576z"/><path fill="#FFF" d="M128.046 262.882l8.465.819-2.641 27.304-8.466-.818 2.642-27.305z"/><path fill="#FFF" d="M158.236 280.576l7.432 2.241c-.497 2.082-1.282 3.825-2.361 5.219a10.177 10.177 0 0 1-3.997 3.16c-1.59.708-3.614 1.065-6.074 1.065-2.989 0-5.422-.434-7.317-1.296-1.89-.868-3.519-2.396-4.892-4.571-1.373-2.178-2.063-4.976-2.063-8.373 0-4.533 1.208-8.02 3.621-10.46 2.42-2.433 5.837-3.651 10.256-3.651 3.454 0 6.175.696 8.153 2.095 1.973 1.397 3.448 3.543 4.405 6.443l-7.471 1.653c-.261-.83-.537-1.437-.823-1.821a4.925 4.925 0 0 0-1.744-1.487c-.688-.351-1.455-.522-2.304-.522-1.93 0-3.404.773-4.425 2.311-.773 1.144-1.163 2.945-1.163 5.39 0 3.04.46 5.115 1.386 6.246.925 1.124 2.222 1.687 3.895 1.687 1.621 0 2.849-.454 3.679-1.367.831-.909 1.43-2.231 1.807-3.962z"/><path fill="#FFF" d="M184.586 283.518l-9.421 1.869-.474 4.703-8.486 1.683 4.792-28.918 9.103-1.804 15.42 24.91-8.707 1.726-2.227-4.169zm-2.914-5.477l-4.855-9.087-1.033 10.255 5.888-1.168z"/><path fill="#FFF" d="M185.905 262.241l9.94-5.124 11.434 12.885-3.852-16.795 9.893-5.1 12.572 24.385-6.164 3.176-9.584-18.588 4.828 21.04-5.585 2.881-14.329-16.143 9.584 18.589-6.165 3.178-12.572-24.384z"/><path fill="#FFF" d="M213.78 248.556l11.342-8.377c2.47-1.825 4.75-2.606 6.854-2.34 2.095.269 3.949 1.487 5.554 3.659 1.647 2.229 2.265 4.473 1.849 6.718-.411 2.247-1.997 4.39-4.749 6.422l-3.74 2.762 6.032 8.168-6.84 5.054-16.302-22.066zm13.808 4.377l1.681-1.24c1.324-.98 2.083-1.898 2.278-2.75.197-.851.032-1.634-.495-2.349-.513-.694-1.176-1.108-2-1.244-.818-.143-1.87.262-3.154 1.209l-1.951 1.442 3.641 4.932z"/><path fill="#FFF" d="M17.43 204.59l-4.67-15.179c-.777-2.527-.746-4.662.089-6.399.834-1.74 2.176-2.896 4.026-3.465 1.549-.478 3.029-.404 4.432.227.942.413 1.813 1.18 2.628 2.285-.128-2.024.222-3.642 1.053-4.873.833-1.226 2.08-2.098 3.747-2.61 1.361-.418 2.679-.478 3.959-.182 1.282.3 2.402.904 3.374 1.802.6.563 1.203 1.499 1.802 2.819.8 1.752 1.293 2.922 1.478 3.52l4.304 13.989-26.222 8.066zm7.779-11.332l-1.088-3.533c-.388-1.265-.881-2.081-1.466-2.442-.591-.358-1.297-.416-2.122-.161-.761.234-1.283.668-1.558 1.294-.281.627-.228 1.561.15 2.787l1.103 3.589 4.981-1.534zm10.291-3.166l-1.271-4.131c-.43-1.399-.983-2.305-1.653-2.725-.672-.422-1.418-.507-2.255-.249-.775.239-1.311.711-1.607 1.423-.295.712-.227 1.779.211 3.202l1.265 4.113 5.31-1.633z"/><path fill="#FFF" d="M16.087 105.833l7.951-21.243 5.49 2.055-4.968 13.276 4.09 1.532 4.606-12.308 5.24 1.96-4.606 12.308 5.058 1.894 5.117-13.672 5.813 2.177-8.098 21.637-25.693-9.616z"/><path fill="#FFF" d="M52.223 47.793l6.138-5.888 18.993 19.796-6.139 5.888-18.992-19.796z"/><path fill="#FFF" d="M93.115 44.768l-7.903 5.455 1.432 4.505-7.122 4.915L72.437 31.2l7.637-5.271 24.044 16.738-7.306 5.042-3.697-2.941zm-4.851-3.869l-8.066-6.413 3.126 9.823 4.94-3.41z"/><path fill="#FFF" d="M52.245 90.416L30.441 73.768l8.572-11.226c1.588-2.081 2.983-3.54 4.18-4.361 1.197-.83 2.539-1.21 4.019-1.149 1.485.065 2.924.633 4.314 1.694 1.208.922 2.056 1.98 2.539 3.168.491 1.187.659 2.44.513 3.767-.092.837-.407 1.85-.943 3.024.882-.596 1.592-.979 2.14-1.138.364-.108 1.025-.174 1.968-.2.941-.021 1.634.009 2.073.096l8.798 1.536-5.812 7.613-9.397-1.478c-1.211-.202-2.079-.222-2.61-.064a3.596 3.596 0 0 0-1.766 1.271l-.454.594 8.831 6.743-5.161 6.758zm-7.781-16.643l2.174-2.847c.233-.305.589-.981 1.065-2.015a2.19 2.19 0 0 0 .148-1.614 2.561 2.561 0 0 0-.943-1.396c-.706-.539-1.419-.73-2.136-.57-.722.156-1.549.85-2.49 2.083l-2.263 2.964 4.445 3.395z"/><path fill="#FFF" d="M139.853 7.39l8.847.457 5.153 20.037 7.104-19.404 8.59.444-11.589 26.871-9.17-.474-8.935-27.931z"/><path fill="#FFF" d="M185.582 37.47l-9.095-3.085-2.758 3.838-8.193-2.78 18.59-22.662 8.787 2.98.923 29.282-8.406-2.851.152-4.722zm.209-6.201l.331-10.299-6.015 8.371 5.684 1.928z"/><path fill="#FFF" d="M209.142 21.98l7.425 4.068-9.939 18.146 11.626 6.369-3.241 5.914-19.052-10.438 13.181-24.059z"/><path fill="#FFF" d="M227.466 46.573c3.344-2.976 6.776-4.364 10.296-4.155 3.525.205 6.765 1.972 9.729 5.301 3.036 3.41 4.458 6.854 4.274 10.326-.187 3.477-1.935 6.681-5.229 9.615-2.396 2.131-4.713 3.476-6.96 4.033-2.249.557-4.482.45-6.69-.313-2.214-.766-4.326-2.286-6.353-4.562-2.054-2.309-3.39-4.549-4.005-6.719-.607-2.17-.538-4.437.219-6.795.751-2.353 2.323-4.6 4.719-6.731zm5.614 6.337c-2.065 1.838-3.21 3.549-3.427 5.12-.213 1.575.267 3.028 1.448 4.354 1.209 1.359 2.596 2.024 4.141 1.982 1.553-.041 3.469-1.079 5.763-3.121 1.926-1.715 2.985-3.359 3.181-4.926.195-1.576-.298-3.025-1.487-4.361-1.139-1.278-2.508-1.905-4.098-1.875-1.595.025-3.435.972-5.521 2.827z"/><path fill="#FFF" d="M240.347 80.019l23.057-14.863 7.652 11.872c1.418 2.201 2.318 4.007 2.683 5.413.377 1.407.278 2.799-.281 4.17-.564 1.375-1.587 2.535-3.059 3.483-1.276.824-2.559 1.262-3.839 1.313-1.284.06-2.52-.207-3.719-.794-.756-.371-1.603-1.011-2.525-1.913.263 1.032.381 1.829.345 2.398-.021.379-.183 1.023-.479 1.92-.298.892-.563 1.532-.794 1.917l-4.429 7.755-5.188-8.051 4.577-8.338c.602-1.071.915-1.881.947-2.434a3.6 3.6 0 0 0-.597-2.092l-.406-.628-9.337 6.02-4.608-7.148zm18.294-1.674l1.941 3.011c.207.322.722.886 1.534 1.685.395.414.886.644 1.468.687a2.546 2.546 0 0 0 1.632-.414c.748-.481 1.17-1.087 1.261-1.815.099-.732-.272-1.746-1.114-3.05l-2.021-3.135-4.701 3.031z"/><path fill="#FFF" d="M266.778 99.105c4.129-1.726 7.826-1.92 11.088-.577 3.267 1.341 5.755 4.066 7.473 8.179 1.76 4.212 1.984 7.932.681 11.155-1.308 3.226-4.003 5.687-8.075 7.388-2.959 1.236-5.587 1.752-7.893 1.547-2.309-.205-4.384-1.033-6.225-2.472-1.843-1.445-3.346-3.571-4.521-6.381-1.192-2.851-1.725-5.404-1.601-7.657.135-2.249.936-4.37 2.419-6.353 1.478-1.981 3.697-3.593 6.654-4.829zm3.245 7.821c-2.551 1.066-4.188 2.312-4.906 3.726-.714 1.419-.733 2.95-.049 4.588.702 1.679 1.797 2.758 3.271 3.222 1.481.467 3.63.11 6.465-1.075 2.38-.995 3.916-2.204 4.61-3.622.699-1.427.703-2.958.015-4.608-.661-1.579-1.752-2.618-3.266-3.107-1.513-.496-3.562-.2-6.14.876z"/><path fill="#FFF" d="M273.604 132.066l.953 8.005c-1.29.245-2.265.657-2.91 1.231-1.056.935-1.541 2.209-1.45 3.829.067 1.205.4 2.12 1.004 2.739.604.625 1.279.913 2.024.872.708-.04 1.33-.381 1.856-1.031.525-.65.967-2.12 1.346-4.411.621-3.757 1.582-6.458 2.878-8.117 1.289-1.671 3.003-2.566 5.146-2.686 1.402-.079 2.752.256 4.046 1.001 1.303.747 2.353 1.916 3.159 3.514.805 1.599 1.288 3.823 1.448 6.673.195 3.5-.306 6.202-1.512 8.112-1.197 1.908-3.21 3.115-6.033 3.624l-.917-7.931c1.231-.28 2.113-.777 2.636-1.484.528-.713.758-1.667.69-2.859-.055-.982-.306-1.716-.75-2.19-.441-.474-.965-.694-1.564-.66-.434.024-.811.25-1.14.671-.342.409-.62 1.372-.849 2.881-.59 3.743-1.253 6.434-1.979 8.073-.729 1.646-1.669 2.869-2.841 3.664-1.164.795-2.496 1.232-3.993 1.317-1.754.097-3.399-.298-4.94-1.184-1.532-.892-2.738-2.18-3.601-3.885-.861-1.698-1.367-3.87-1.515-6.522-.261-4.654.458-7.931 2.15-9.822 1.693-1.892 3.912-3.033 6.658-3.424z"/><path fill="#FFF" d="M266.303 179.492l2.206-9.348-4.084-2.38 1.984-8.422 24.331 16.346-2.128 9.031-29.061 3.711 2.036-8.639 4.716-.299zm6.193-.383l10.284-.653-8.907-5.188-1.377 5.841z"/><path fill-rule="evenodd" clip-rule="evenodd" fill="#FFF" d="M8.51 138.219l4.76-25.318 6.66 1.252-1.598 8.498 20.297 3.816-1.566 8.329-6.106-1.148a65.902 65.902 0 0 1-7.365-4.437l.339 3.116-7.166-1.347-1.596 8.492-6.659-1.253z"/><path fill-rule="evenodd" clip-rule="evenodd" fill="#FFF" d="M31.288 151.931l.379 9.649 4.576 1.148.342 8.652-27.813-9.217-.364-9.234 19.784-8.344a43.346 43.346 0 0 0 4.778 6.771l-1.682.575zm.27-8.764l3.851-1.624.203 5.175-4.054-3.551zm-6.13 10.772l-9.732 3.419 9.971 2.624-.239-6.043z"/></svg>